# Blender v2.79 (sub 0) OBJ File: 'Grass2.blend'
# www.blender.org
mtllib Grass2.mtl
o Grass2_Cube.003
v 0.066964 -0.002620 -0.015721
v 0.074145 0.017264 -0.017877
v 0.085245 -0.002620 -0.037508
v 0.084369 0.017264 -0.030061
v 0.077488 -0.002620 -0.006890
v 0.080483 0.017264 -0.012559
v 0.095769 -0.002620 -0.028677
v 0.090707 0.017264 -0.024743
v 0.058052 0.146705 0.010714
v 0.064219 0.144686 0.003364
v 0.061959 0.146705 0.013993
v 0.068126 0.144686 0.006643
v 0.068703 0.085993 -0.008996
v 0.062536 0.088012 -0.001646
v 0.064796 0.085993 -0.012274
v 0.058629 0.088012 -0.004924
v -0.056225 -0.002620 -0.063924
v -0.053143 0.014112 -0.068617
v -0.056225 -0.002620 -0.085218
v -0.053143 0.014112 -0.080525
v -0.045939 -0.002620 -0.063924
v -0.046949 0.014112 -0.068617
v -0.045939 -0.002620 -0.085218
v -0.046949 0.014112 -0.080525
v -0.048614 0.111028 -0.044473
v -0.048614 0.109516 -0.051656
v -0.044795 0.111028 -0.044473
v -0.044795 0.109516 -0.051656
v -0.051990 0.065571 -0.060903
v -0.051990 0.067083 -0.053720
v -0.055809 0.065571 -0.060903
v -0.055809 0.067083 -0.053720
v 0.040527 -0.002620 0.041483
v 0.040257 0.034245 0.052767
v 0.063166 -0.002620 0.077821
v 0.052918 0.034245 0.073088
v 0.022973 -0.002620 0.052418
v 0.029686 0.034245 0.059353
v 0.045612 -0.002620 0.088757
v 0.042347 0.034245 0.079674
v 0.031696 0.224720 0.056249
v 0.039501 0.224720 0.068776
v 0.025180 0.224720 0.060309
v 0.032984 0.224720 0.072836
v 0.048522 0.142088 0.070417
v 0.040718 0.142088 0.057890
v 0.055039 0.142088 0.066357
v 0.047234 0.142088 0.053830
v -0.068829 -0.002620 0.016167
v -0.062634 0.034245 0.006732
v -0.068829 -0.002620 -0.026646
v -0.062634 0.034245 -0.017211
v -0.048148 -0.002620 0.016167
v -0.050179 0.034245 0.006732
v -0.048148 -0.002620 -0.026646
v -0.050179 0.034245 -0.017211
v -0.053526 0.224720 0.008303
v -0.053526 0.224720 -0.006456
v -0.045848 0.224720 0.008303
v -0.045848 0.224720 -0.006456
v -0.060316 0.142088 -0.012619
v -0.060316 0.142088 0.002140
v -0.067993 0.142088 -0.012619
v -0.067993 0.142088 0.002140
v 0.044796 -0.002620 -0.059640
v 0.031479 0.047367 -0.051008
v 0.020548 -0.002620 -0.004549
v 0.017919 0.047367 -0.020199
v 0.018183 -0.002620 -0.071353
v 0.015453 0.047367 -0.058062
v -0.006064 -0.002620 -0.016262
v 0.001893 0.047367 -0.027253
v 0.033316 0.105982 -0.064149
v 0.023869 0.105982 -0.042686
v 0.011410 0.105982 -0.048015
v 0.020857 0.105982 -0.069479
v 0.043077 0.226544 -0.097640
v 0.034468 0.231012 -0.078081
v 0.028464 0.231012 -0.080723
v 0.037073 0.226544 -0.100283
v 0.020917 0.152251 -0.066804
v 0.029945 0.150017 -0.087315
v 0.041237 0.150017 -0.082500
v 0.032209 0.152251 -0.061988
v -0.044925 -0.002620 0.064154
v -0.033350 0.038775 0.057852
v -0.021345 -0.002620 0.020074
v -0.020163 0.038775 0.033201
v -0.023632 -0.002620 0.075544
v -0.020526 0.038775 0.064711
v -0.000052 -0.002620 0.031464
v -0.007340 0.038775 0.040060
v -0.032399 0.114888 0.070253
v -0.023212 0.114888 0.053079
v -0.016540 0.114888 0.056648
v -0.025727 0.114888 0.073822
v -0.044630 0.157639 0.095365
v -0.036259 0.161349 0.079714
v -0.031455 0.161349 0.082284
v -0.039827 0.157639 0.097934
v -0.051173 0.223983 0.107595
v -0.042801 0.227693 0.091945
v -0.037997 0.227693 0.094514
v -0.046369 0.223983 0.110165
vn -0.7501 0.2027 -0.6294
vn 0.6131 0.3006 -0.7306
vn 0.7643 0.0677 0.6413
vn -0.6131 0.3006 0.7306
vn 0.0000 -1.0000 0.0000
vn -0.7317 0.1688 -0.6604
vn -0.7677 -0.0524 -0.6387
vn 0.7317 -0.1688 0.6604
vn 0.6006 0.3563 -0.7158
vn -0.6188 -0.2707 0.7374
vn 0.7673 0.0987 0.6336
vn 0.6290 0.2059 -0.7496
vn -0.6290 -0.2059 0.7496
vn 0.1324 0.9786 -0.1578
vn -0.9835 0.1811 0.0000
vn 0.0000 0.2700 -0.9628
vn 0.9982 0.0603 -0.0000
vn 0.0000 0.2700 0.9628
vn -0.9850 0.1688 -0.0355
vn -0.9986 -0.0524 0.0041
vn 0.9850 -0.1688 0.0355
vn 0.0000 0.3563 -0.9344
vn 0.0000 -0.2707 0.9627
vn 0.9951 0.0987 -0.0078
vn 0.0000 0.2059 -0.9786
vn 0.0000 -0.2059 0.9786
vn 0.0000 0.9786 -0.2059
vn 0.8370 0.1657 -0.5215
vn 0.5123 0.2480 0.8223
vn -0.8475 0.0550 0.5280
vn -0.5123 0.2480 -0.8223
vn 0.8360 0.1725 -0.5209
vn 0.8477 -0.0496 -0.5281
vn -0.8360 -0.1725 0.5209
vn 0.5283 0.0425 0.8480
vn -0.5283 0.0425 -0.8480
vn -0.8450 0.0936 0.5265
vn 0.5273 0.0744 0.8464
vn -0.5273 -0.0744 -0.8464
vn 0.0000 1.0000 -0.0000
vn -0.9862 0.1657 0.0000
vn 0.0000 0.2480 -0.9688
vn 0.9985 0.0550 0.0000
vn -0.0000 0.2480 0.9688
vn -0.9850 0.1725 -0.0000
vn -0.9988 -0.0496 0.0000
vn 0.9850 -0.1725 -0.0000
vn 0.0000 0.0425 -0.9991
vn -0.0000 0.0425 0.9991
vn 0.9956 0.0936 -0.0000
vn -0.0000 0.0744 -0.9972
vn -0.0000 -0.0744 0.9972
vn 0.9017 0.1717 0.3969
vn -0.3894 0.2565 0.8846
vn -0.9138 0.0570 -0.4022
vn 0.3894 0.2565 -0.8846
vn 0.9135 0.0615 0.4021
vn -0.9141 0.0163 -0.4051
vn 0.3896 -0.2118 -0.8963
vn -0.3713 0.3641 0.8541
vn -0.9153 0.0059 -0.4028
vn 0.0824 0.9788 -0.1873
vn 0.9172 0.0551 0.3945
vn 0.3889 -0.1884 -0.9018
vn -0.3883 0.1957 0.9005
vn -0.3576 0.4136 0.8373
vn 0.3577 -0.4132 -0.8375
vn 0.9153 0.0031 0.4027
vn -0.9145 0.0245 -0.4038
vn -0.8686 0.1722 -0.4646
vn 0.4558 0.2572 -0.8521
vn 0.8803 0.0572 0.4709
vn -0.4558 0.2572 0.8521
vn -0.8784 0.0875 -0.4699
vn 0.8805 0.0223 0.4735
vn -0.4673 -0.1365 0.8735
vn 0.4577 0.2418 -0.8556
vn 0.8818 0.0038 0.4717
vn -0.4617 -0.2046 0.8631
vn -0.8826 0.0223 -0.4696
vn -0.3950 -0.5467 0.7383
vn 0.3977 0.5378 -0.7434
vn -0.0965 0.9788 0.1804
vn 0.4617 0.2046 -0.8631
vn 0.8818 0.0000 0.4717
vn -0.8818 -0.0000 -0.4717
usemtl Leaves
s off
f 2//1 4//1 3//1 1//1
f 4//2 8//2 7//2 3//2
f 8//3 6//3 5//3 7//3
f 6//4 2//4 1//4 5//4
f 1//5 3//5 7//5 5//5
f 15//6 16//6 9//6 10//6
f 4//7 2//7 16//7 15//7
f 14//8 13//8 12//8 11//8
f 8//9 4//9 15//9 13//9
f 2//10 6//10 14//10 16//10
f 6//11 8//11 13//11 14//11
f 13//12 15//12 10//12 12//12
f 16//13 14//13 11//13 9//13
f 12//14 10//14 9//14 11//14
f 18//15 20//15 19//15 17//15
f 20//16 24//16 23//16 19//16
f 24//17 22//17 21//17 23//17
f 22//18 18//18 17//18 21//18
f 17//5 19//5 23//5 21//5
f 31//19 32//19 25//19 26//19
f 20//20 18//20 32//20 31//20
f 30//21 29//21 28//21 27//21
f 24//22 20//22 31//22 29//22
f 18//23 22//23 30//23 32//23
f 22//24 24//24 29//24 30//24
f 29//25 31//25 26//25 28//25
f 32//26 30//26 27//26 25//26
f 28//27 26//27 25//27 27//27
f 34//28 36//28 35//28 33//28
f 36//29 40//29 39//29 35//29
f 40//30 38//30 37//30 39//30
f 38//31 34//31 33//31 37//31
f 33//5 35//5 39//5 37//5
f 47//32 48//32 41//32 42//32
f 36//33 34//33 48//33 47//33
f 46//34 45//34 44//34 43//34
f 40//35 36//35 47//35 45//35
f 34//36 38//36 46//36 48//36
f 38//37 40//37 45//37 46//37
f 45//38 47//38 42//38 44//38
f 48//39 46//39 43//39 41//39
f 44//40 42//40 41//40 43//40
f 50//41 52//41 51//41 49//41
f 52//42 56//42 55//42 51//42
f 56//43 54//43 53//43 55//43
f 54//44 50//44 49//44 53//44
f 49//5 51//5 55//5 53//5
f 63//45 64//45 57//45 58//45
f 52//46 50//46 64//46 63//46
f 62//47 61//47 60//47 59//47
f 56//48 52//48 63//48 61//48
f 50//49 54//49 62//49 64//49
f 54//50 56//50 61//50 62//50
f 61//51 63//51 58//51 60//51
f 64//52 62//52 59//52 57//52
f 60//40 58//40 57//40 59//40
f 66//53 68//53 67//53 65//53
f 68//54 72//54 71//54 67//54
f 72//55 70//55 69//55 71//55
f 70//56 66//56 65//56 69//56
f 65//5 67//5 71//5 69//5
f 68//57 66//57 73//57 74//57
f 82//58 81//58 79//58 80//58
f 66//59 70//59 76//59 73//59
f 72//60 68//60 74//60 75//60
f 70//61 72//61 75//61 76//61
f 80//62 79//62 78//62 77//62
f 84//63 83//63 77//63 78//63
f 83//64 82//64 80//64 77//64
f 81//65 84//65 78//65 79//65
f 75//66 74//66 84//66 81//66
f 73//67 76//67 82//67 83//67
f 74//68 73//68 83//68 84//68
f 76//69 75//69 81//69 82//69
f 86//70 88//70 87//70 85//70
f 88//71 92//71 91//71 87//71
f 92//72 90//72 89//72 91//72
f 90//73 86//73 85//73 89//73
f 85//5 87//5 91//5 89//5
f 88//74 86//74 93//74 94//74
f 96//75 95//75 99//75 100//75
f 86//76 90//76 96//76 93//76
f 92//77 88//77 94//77 95//77
f 90//78 92//78 95//78 96//78
f 97//79 100//79 104//79 101//79
f 94//80 93//80 97//80 98//80
f 93//81 96//81 100//81 97//81
f 95//82 94//82 98//82 99//82
f 104//83 103//83 102//83 101//83
f 99//84 98//84 102//84 103//84
f 100//85 99//85 103//85 104//85
f 98//86 97//86 101//86 102//86
