# Blender v2.79 (sub 0) OBJ File: 'Tree3.blend'
# www.blender.org
mtllib Tree3.mtl
o Tree3_Icosphere.008
v -0.077977 2.072704 0.849624
v 0.755841 2.928441 1.050752
v -0.396460 3.117545 1.373898
v -1.108638 2.622470 0.527902
v 0.755841 2.316500 0.005052
v 0.240507 4.007092 0.853338
v -0.396460 2.127396 -0.318094
v -0.911794 3.817987 0.530191
v 0.952686 3.512017 0.007342
v 0.044251 2.119128 0.618069
v -0.070877 2.161747 -0.034408
v -0.911794 3.206048 -0.515508
v 0.240507 3.016943 -0.838654
v 0.050135 2.121709 0.603441
v 0.009915 2.111357 0.629981
v -0.077976 4.061784 -0.314380
v -0.062329 2.166029 -0.061037
v -0.073800 2.103184 0.550391
v 0.064626 2.128151 0.566524
v 0.046302 1.936010 0.502715
v -0.004384 2.108138 0.634764
v -0.004384 1.924615 0.520349
v -0.051070 2.171590 -0.095318
v -0.055069 1.814395 0.129691
v -0.076065 1.841904 0.172263
v -0.051353 2.159341 0.027634
v -0.053217 2.101522 0.606978
v 0.042088 2.190661 -0.107331
v 0.061668 2.188928 -0.051971
v 0.067296 1.963518 0.460144
v 0.065417 1.716942 0.329282
v -0.032964 2.176229 -0.107056
v -0.103097 1.662754 0.284480
v -0.060715 2.160789 -0.005090
v -0.057793 2.110420 0.508402
v -0.069010 2.102818 0.563347
v -0.004384 2.183510 -0.125165
v 0.044669 2.129956 0.509710
v 0.055640 1.762508 0.298504
v 0.059351 2.128584 0.551948
v -0.039972 2.103328 0.614397
v -0.055071 1.936010 0.502715
v -0.004384 1.676745 0.382196
v -0.004384 1.803001 0.112057
v -0.074184 1.652861 0.215383
v -0.064505 1.762051 0.298812
v -0.055069 1.806023 0.269110
v -0.055071 1.991026 0.417572
v -0.076065 1.963518 0.460144
v -0.004384 2.166203 0.049328
v 0.049669 2.189960 -0.085597
v 0.012757 2.186133 -0.118434
v 0.054006 2.184559 -0.022747
v 0.046303 1.806024 0.269110
v 0.046302 1.991026 0.417572
v 0.065417 1.030044 0.232158
v 0.094330 1.662754 0.284480
v -0.103097 1.045081 0.163996
v -0.074184 1.716941 0.329282
v -0.025375 2.163355 0.037428
v -0.053645 2.112251 0.497968
v 0.067297 1.841904 0.172263
v 0.046303 1.814395 0.129691
v 0.042382 2.178639 0.014445
v 0.033557 2.128453 0.503362
v -0.004384 1.023815 0.260391
v 0.094330 1.045081 0.163996
v -0.004384 1.648763 0.186763
v -0.074185 1.060119 0.095834
v -0.074185 1.030044 0.232157
v -0.004384 1.841197 0.277941
v -0.014328 2.121150 0.484330
v -0.004384 2.002420 0.399938
v 0.065417 1.652861 0.215383
v -0.004384 2.123384 0.481045
v 0.098742 0.542299 0.142120
v 0.141458 0.545466 0.039043
v 0.065417 1.060119 0.095834
v -0.150225 0.545466 0.039043
v -0.107509 0.542299 0.142120
v 0.021461 2.172873 0.032093
v -0.004384 0.540987 0.184816
v 0.100068 0.531954 -0.063851
v -0.004384 1.066348 0.067601
v -0.108835 0.531953 -0.063850
v 0.107539 0.305920 0.156920
v 0.153899 0.333582 0.048470
v 0.107539 0.408729 -0.059981
v -0.004384 0.581379 -0.107096
v -0.116307 0.408729 -0.059981
v -0.116307 0.305920 0.156920
v -0.004384 0.294462 0.201843
v 0.102340 0.463352 -0.062376
v -0.004384 0.826225 -0.271904
v -0.111545 0.458744 -0.062175
v -0.162667 0.333582 0.048470
v -0.004384 0.154843 0.168585
v 0.107539 0.166301 0.123663
v 0.153899 0.193962 0.015212
v 0.107539 0.221624 -0.093239
v 0.076193 0.776314 -0.335163
v 0.052592 0.811606 -0.290432
v -0.061361 0.811606 -0.290432
v -0.084961 0.776314 -0.335163
v -0.061361 0.741022 -0.379894
v -0.162667 0.193962 0.015212
v -0.116307 0.166300 0.123663
v -0.004384 -0.020227 0.173495
v 0.107539 -0.020226 0.127135
v -0.004384 0.233082 -0.138160
v 0.052592 0.741022 -0.379894
v -0.011267 1.164369 -0.676387
v -0.068301 1.164952 -0.730565
v -0.004384 0.726404 -0.398422
v -0.116307 0.221624 -0.093239
v -0.162667 -0.020226 0.015212
v -0.116307 -0.020226 0.127135
v 0.153899 -0.020226 0.015212
v -0.004384 0.372701 -0.104903
v 0.107539 -0.020227 -0.096711
v 0.067874 1.104385 -0.732280
v 0.045621 1.162292 -0.730683
v -0.093236 1.108147 -0.732115
v -0.070642 1.066511 -0.771602
v -0.014095 1.048164 -0.788008
v -0.116307 -0.020227 -0.096711
v -0.004384 -0.020227 -0.143071
v 0.043280 1.063852 -0.771720
v -0.016168 1.499506 -1.215268
v -0.065288 1.510128 -1.261073
v -0.087832 1.462681 -1.271925
v 0.051333 1.456646 -1.272788
v 0.033116 1.505860 -1.261684
v -0.068924 1.433623 -1.312420
v -0.020331 1.419819 -1.329446
v 0.029481 1.429356 -1.313030
v -0.007451 1.699371 -1.207111
v -0.043203 1.702489 -1.221620
v -0.057862 1.528540 -1.294654
v -0.052876 1.507471 -1.417855
v -0.017748 1.493150 -1.425558
v 0.034829 1.534564 -1.400329
v 0.026834 1.525057 -1.295519
v 0.028253 1.699390 -1.222063
v -0.058059 1.706918 -1.257089
v -0.066226 1.538945 -1.399704
v 0.018581 1.504372 -1.418299
v 0.003885 1.957484 -1.183861
v 0.020190 1.956279 -1.190821
v -0.030598 1.938143 -1.199287
v -0.013010 1.948084 -1.191315
v -0.046447 1.907965 -1.235692
v -0.037557 1.925034 -1.215077
v -0.043316 1.710065 -1.292742
v -0.050623 1.546487 -1.327389
v -0.040351 1.750853 -1.823565
v -0.009558 1.740294 -1.832867
v 0.022146 1.748143 -1.823953
v 0.036189 1.769799 -1.802044
v 0.020834 1.543389 -1.327833
v 0.042996 1.702536 -1.257715
v 0.037057 1.955184 -1.197812
v -0.041555 1.899124 -1.249457
v -0.033898 1.884513 -1.272066
v -0.053633 1.749567 -1.760297
v -0.052023 1.748856 -1.749784
v -0.044559 1.758947 -1.815723
v 0.025104 1.773911 -1.752509
v 0.030726 1.780308 -1.791864
v 0.024063 1.772539 -1.743615
v 0.043750 1.943272 -1.216389
v -0.007611 1.710085 -1.307693
v -0.021894 1.883745 -1.277024
v -0.040652 1.745397 -1.688910
v -0.039909 1.762761 -1.835620
v -0.008199 1.776941 -1.869964
v 0.023560 1.786261 -1.862539
v 0.036763 1.785260 -1.817695
v -0.001763 1.758538 -1.694639
v 0.028141 1.706967 -1.293185
v 0.049965 1.932509 -1.233230
v -0.013848 1.569878 -1.333238
v -0.000021 1.882084 -1.286422
v -0.032984 1.747363 -1.684690
v -0.007979 1.754850 -1.680122
v 0.041238 1.914819 -1.254753
v 0.012773 1.889385 -1.280526
v 0.034821 1.902203 -1.270041
v -0.077977 2.232583 -0.778432
v 0.605015 2.865823 -1.121176
v -0.338851 3.157477 -1.026341
v -0.922207 2.393927 -1.274622
v 0.605015 1.922031 -1.428066
v 0.182898 3.418540 -1.829198
v -0.338851 1.630377 -1.522903
v -0.760969 3.126886 -1.924035
v 0.766254 2.654989 -2.077478
v -0.760969 2.183094 -2.230924
v 0.182898 1.891439 -2.325760
v -0.077977 2.816334 -2.573669
vn 0.9206 -0.2007 0.3349
vn 0.3826 -0.4894 0.7836
vn -0.9238 -0.1971 -0.3282
vn 0.9238 -0.1971 0.3282
vn 0.3737 -0.4907 0.7871
vn 0.5863 -0.4329 0.6847
vn -0.9206 -0.2007 -0.3349
vn -0.9203 -0.0957 -0.3793
vn -0.9183 0.2253 0.3256
vn 0.9939 -0.0577 0.0945
vn 0.9183 0.2253 -0.3256
vn -0.3826 -0.4888 0.7840
vn -0.3826 -0.4894 -0.7836
vn -0.9397 0.1997 0.2777
vn -0.9238 0.2182 -0.3146
vn -0.9206 -0.2013 0.3347
vn -0.9238 -0.1966 0.3285
vn 0.9238 0.2191 -0.3140
vn -0.3737 -0.4914 0.7867
vn -0.3737 -0.4907 -0.7871
vn -0.9023 0.3320 0.2750
vn -0.3699 0.5269 0.7652
vn -0.9181 0.2265 -0.3252
vn -0.9567 0.1641 -0.2405
vn -0.9937 -0.0584 0.0958
vn 0.9206 -0.2013 -0.3347
vn 0.9238 -0.1966 -0.3285
vn 0.3826 -0.4888 -0.7840
vn 0.3737 -0.4914 -0.7867
vn 0.9415 0.1935 0.2758
vn 0.9565 0.1645 -0.2408
vn 0.9023 0.3320 0.2750
vn 0.3711 0.5163 -0.7719
vn -0.5863 -0.4329 0.6847
vn 0.5314 -0.1366 0.8360
vn 0.8759 -0.0794 0.4759
vn -0.3727 -0.4022 -0.8362
vn -0.9199 0.0763 -0.3847
vn -0.8759 -0.0794 0.4759
vn -0.4763 0.5059 0.7192
vn -0.3826 0.5138 -0.7679
vn 0.9203 -0.0957 -0.3793
vn 0.3727 -0.4022 -0.8362
vn 0.9176 0.2308 0.3235
vn 0.3314 0.5808 -0.7435
vn 0.3826 0.5145 -0.7674
vn -0.5314 -0.1366 0.8360
vn 0.3809 -0.1428 0.9135
vn 0.9228 -0.0087 0.3851
vn 0.9199 0.0763 -0.3847
vn -0.3731 0.1847 -0.9092
vn -0.9111 0.1758 -0.3729
vn -0.9228 -0.0087 0.3851
vn -0.3314 0.5808 -0.7435
vn 0.3690 0.5347 0.7602
vn -0.3710 0.5172 -0.7713
vn 0.4735 0.5004 0.7248
vn 0.9111 0.1758 -0.3729
vn -0.3809 -0.1428 0.9135
vn 0.3731 0.1847 -0.9092
vn 0.3730 0.0678 0.9254
vn 0.9163 0.0648 0.3953
vn 0.9251 0.0400 -0.3776
vn 0.4417 0.2948 -0.8473
vn -0.4417 0.2948 -0.8473
vn -0.9252 0.0401 -0.3772
vn -0.9163 0.0648 0.3953
vn -0.3730 0.0678 0.9254
vn 0.1172 0.6007 0.7908
vn 0.3826 -0.2141 0.8988
vn 0.9239 -0.0887 0.3723
vn 0.9292 0.0737 -0.3622
vn 0.9689 -0.0898 -0.2304
vn 0.9745 0.2025 0.0966
vn -0.1172 0.6007 0.7908
vn -0.9754 0.1993 0.0937
vn -0.9668 -0.0952 -0.2373
vn -0.9292 0.0737 -0.3622
vn -0.9239 -0.0887 0.3723
vn -0.3826 -0.2141 0.8987
vn 0.3766 0.0215 0.9261
vn 0.9216 0.0034 0.3882
vn 0.3482 0.1870 -0.9186
vn 0.4580 0.6926 0.5573
vn -0.4485 0.6879 0.5706
vn -0.4331 -0.5813 -0.6889
vn -0.9216 0.0034 0.3882
vn -0.3766 0.0215 0.9261
vn 0.9219 0.0030 -0.3875
vn 0.3782 0.0157 -0.9256
vn 0.4331 -0.5813 -0.6889
vn 0.9194 -0.2931 -0.2624
vn 0.9124 0.3259 0.2475
vn -0.8994 0.3300 0.2865
vn -0.9248 -0.3022 -0.2313
vn -0.3868 -0.7147 -0.5827
vn -0.9219 0.0030 -0.3875
vn -0.3482 0.1870 -0.9186
vn 0.0000 -1.0000 0.0000
vn 0.4245 0.7677 0.4801
vn -0.3849 0.7784 0.4959
vn -0.8938 0.3785 0.2404
vn 0.3703 -0.7121 -0.5964
vn -0.3782 0.0157 -0.9256
vn 0.9100 -0.3333 -0.2467
vn -0.9282 -0.3065 -0.2108
vn -0.3963 -0.7591 -0.5165
vn 0.9260 0.3276 0.1876
vn 0.5874 -0.1032 0.8027
vn -0.5841 -0.0525 0.8100
vn -0.8826 0.4590 0.1014
vn -0.9324 -0.2162 -0.2897
vn 0.3444 -0.7730 -0.5327
vn -0.4078 -0.7190 -0.5628
vn 0.9065 -0.2959 -0.3011
vn 0.9202 0.3808 0.0902
vn -0.9924 0.0341 0.1180
vn 0.3370 -0.7513 -0.5674
vn 0.9932 -0.0520 0.1042
vn 0.3844 -0.0996 0.9178
vn -0.3802 -0.0671 0.9225
vn -0.9218 0.0120 0.3876
vn -0.9559 0.0796 -0.2827
vn -0.9369 -0.2864 -0.2004
vn -0.4154 -0.7741 -0.4777
vn 0.3409 -0.8069 -0.4824
vn 0.9060 -0.3664 -0.2118
vn -0.3713 -0.0671 0.9261
vn 0.3754 -0.1003 0.9214
vn -0.9186 0.0117 0.3951
vn -0.9175 0.0941 -0.3865
vn -0.9229 0.0941 -0.3733
vn -0.9268 0.3375 0.1648
vn 0.9336 0.3078 0.1834
vn 0.9529 0.2624 0.1520
vn 0.9555 -0.0031 -0.2950
vn 0.9241 -0.0675 0.3762
vn -0.3289 0.1976 -0.9235
vn -0.3715 0.1290 -0.9194
vn -0.9004 0.3912 0.1904
vn -0.9365 -0.2318 -0.2633
vn -0.4148 -0.6397 -0.6471
vn 0.3498 -0.6728 -0.6519
vn 0.9095 -0.3118 -0.2747
vn 0.9365 0.2318 0.2633
vn 0.4076 0.7984 0.4432
vn 0.9208 -0.0688 0.3838
vn -0.3830 0.1300 -0.9145
vn -0.4370 0.7931 0.4243
vn 0.5121 0.7543 0.4109
vn 0.9229 0.0130 -0.3849
vn 0.3333 0.1689 -0.9276
vn 0.3699 0.0979 -0.9239
vn -0.3304 0.8351 0.4397
vn 0.9172 0.0158 -0.3980
vn 0.3814 0.0959 -0.9194
vn 0.1876 -0.3942 0.8997
vn -0.4911 -0.5056 0.7093
vn 0.6071 -0.6858 0.4014
vn 0.3035 0.3099 0.9010
vn -0.4911 -0.8661 0.0934
vn -0.7946 0.1297 0.5931
vn 0.9822 -0.1619 0.0947
vn 0.1876 -0.9775 -0.0969
vn -0.3035 0.6337 0.7115
vn 0.7946 0.4535 0.4036
vn -0.7946 -0.4535 -0.4036
vn -0.9822 0.1619 -0.0947
vn 0.7946 -0.1297 -0.5931
vn -0.1876 0.9775 0.0969
vn 0.4911 0.8661 -0.0934
vn -0.3035 -0.3099 -0.9010
vn -0.6071 0.6858 -0.4014
vn 0.3035 -0.6337 -0.7115
vn 0.4911 0.5056 -0.7093
vn -0.1876 0.3942 -0.8997
vn 0.1876 0.3033 0.9342
vn -0.4911 0.0936 0.8660
vn 0.6071 -0.2457 0.7557
vn 0.3035 0.8304 0.4673
vn -0.4911 -0.5851 0.6454
vn -0.7946 0.4911 0.3569
vn 0.9822 -0.0580 0.1784
vn 0.1876 -0.7948 0.5772
vn -0.3035 0.9464 0.1105
vn 0.7946 0.6071 0.0001
vn -0.7946 -0.6071 -0.0001
vn -0.9822 0.0580 -0.1784
vn 0.7946 -0.4911 -0.3569
vn 0.3035 -0.9464 -0.1105
vn -0.1876 0.7948 -0.5772
vn 0.4911 0.5851 -0.6454
vn -0.3035 -0.8304 -0.4673
vn -0.6071 0.2457 -0.7557
vn 0.4911 -0.0936 -0.8660
vn -0.1876 -0.3033 -0.9342
usemtl Tree
s off
f 10//1 20//1 14//1
f 15//2 22//2 20//2 10//2
f 17//3 24//3 25//3 11//3
f 14//4 20//4 30//4 19//4
f 21//5 22//5 15//5
f 20//6 22//6 43//6 31//6
f 23//7 24//7 17//7
f 25//8 24//8 45//8 33//8
f 11//9 25//9 34//9
f 30//10 20//10 31//10 39//10
f 19//11 30//11 40//11
f 41//12 42//12 22//12 21//12
f 32//13 44//13 24//13 23//13
f 34//14 25//14 47//14 26//14
f 35//15 48//15 49//15 18//15
f 18//16 49//16 36//16
f 36//17 49//17 42//17 27//17
f 40//18 30//18 55//18 38//18
f 27//19 42//19 41//19
f 37//20 44//20 32//20
f 59//21 46//21 47//21 25//21 33//21
f 26//22 47//22 60//22
f 61//23 48//23 35//23
f 49//24 48//24 47//24 46//24
f 42//25 49//25 46//25 59//25
f 29//26 62//26 51//26
f 51//27 62//27 63//27 28//27
f 52//28 63//28 44//28 37//28
f 28//29 63//29 52//29
f 53//30 54//30 62//30 29//30
f 55//31 30//31 39//31 54//31
f 54//32 39//32 31//32 57//32 62//32
f 38//33 55//33 65//33
f 59//34 43//34 22//34 42//34
f 66//35 56//35 31//35 43//35
f 56//36 67//36 57//36 31//36
f 68//37 45//37 24//37 44//37
f 69//38 58//38 33//38 45//38
f 58//39 70//39 59//39 33//39
f 60//40 47//40 71//40 50//40
f 72//41 73//41 48//41 61//41
f 63//42 62//42 57//42 74//42
f 44//43 63//43 74//43 68//43
f 64//44 54//44 53//44
f 54//45 71//45 73//45 55//45
f 65//46 55//46 73//46 75//46
f 43//47 59//47 70//47 66//47
f 56//48 66//48 82//48 76//48
f 67//49 56//49 76//49 77//49
f 67//50 78//50 74//50 57//50
f 45//51 68//51 84//51 69//51
f 58//52 69//52 85//52 79//52
f 70//53 58//53 79//53 80//53
f 48//54 73//54 71//54 47//54
f 50//55 71//55 81//55
f 75//56 73//56 72//56
f 81//57 71//57 54//57 64//57
f 77//58 83//58 78//58 67//58
f 80//59 82//59 66//59 70//59
f 68//60 74//60 78//60 84//60
f 76//61 82//61 92//61 86//61
f 77//62 76//62 86//62 87//62
f 87//63 88//63 93//63 83//63 77//63
f 83//64 89//64 84//64 78//64
f 69//65 84//65 89//65 85//65
f 95//66 90//66 96//66 79//66 85//66
f 80//67 79//67 96//67 91//67
f 82//68 80//68 91//68 92//68
f 89//69 83//69 102//69 94//69
f 97//70 98//70 86//70 92//70
f 98//71 99//71 87//71 86//71
f 88//72 87//72 99//72 100//72
f 93//73 88//73 111//73 101//73
f 83//74 93//74 101//74 102//74
f 94//75 103//75 85//75 89//75
f 95//76 85//76 103//76 104//76
f 90//77 95//77 104//77 105//77
f 96//78 90//78 115//78 106//78
f 106//79 107//79 91//79 96//79
f 107//80 97//80 92//80 91//80
f 97//81 108//81 109//81 98//81
f 98//82 109//82 118//82 99//82
f 100//83 110//83 119//83 88//83
f 94//84 102//84 122//84 112//84
f 103//85 94//85 112//85 113//85
f 105//86 114//86 119//86 90//86
f 106//87 116//87 117//87 107//87
f 107//88 117//88 108//88 97//88
f 99//89 118//89 120//89 100//89
f 100//90 120//90 127//90 110//90
f 88//91 119//91 114//91 111//91
f 101//92 111//92 128//92 121//92
f 102//93 101//93 121//93 122//93
f 113//94 123//94 104//94 103//94
f 105//95 104//95 123//95 124//95
f 114//96 105//96 124//96 125//96
f 115//97 126//97 116//97 106//97
f 90//98 119//98 110//98 115//98
f 109//99 108//99 117//99 116//99 126//99 127//99 120//99 118//99
f 112//100 122//100 133//100 129//100
f 113//101 112//101 129//101 130//101
f 123//102 113//102 130//102 131//102
f 125//103 128//103 111//103 114//103
f 126//104 115//104 110//104 127//104
f 121//105 128//105 136//105 132//105
f 131//106 134//106 124//106 123//106
f 125//107 124//107 134//107 135//107
f 132//108 133//108 122//108 121//108
f 129//109 133//109 144//109 137//109
f 130//110 129//110 137//110 138//110
f 130//111 139//111 155//111 146//111 131//111
f 134//112 131//112 146//112 140//112
f 135//113 136//113 128//113 125//113
f 135//114 134//114 140//114 141//114
f 132//115 136//115 147//115 142//115
f 133//116 132//116 142//116 160//116 143//116
f 138//117 145//117 139//117 130//117
f 136//118 135//118 141//118 147//118
f 133//119 143//119 161//119 144//119
f 148//120 137//120 144//120 149//120
f 150//121 138//121 137//121 151//121
f 152//122 145//122 138//122 153//122
f 145//123 154//123 155//123 139//123
f 140//124 146//124 165//124 167//124 156//124
f 141//125 140//125 156//125 157//125
f 147//126 141//126 157//126 158//126
f 142//127 147//127 158//127 159//127
f 151//128 137//128 148//128
f 149//129 144//129 162//129
f 153//130 138//130 150//130
f 163//131 145//131 152//131
f 164//132 154//132 145//132 163//132
f 165//133 146//133 155//133 166//133
f 168//134 142//134 159//134 169//134
f 170//135 160//135 142//135 168//135
f 143//136 160//136 180//136 161//136
f 162//137 144//137 161//137 171//137
f 154//138 172//138 182//138 155//138
f 173//139 154//139 164//139
f 166//140 155//140 174//140
f 175//141 156//141 167//141
f 176//142 157//142 156//142 175//142
f 177//143 158//143 157//143 176//143
f 178//144 159//144 158//144 177//144
f 169//145 159//145 178//145
f 179//146 160//146 170//146
f 171//147 161//147 181//147
f 183//148 172//148 154//148 173//148
f 174//149 155//149 182//149 184//149
f 185//150 182//150 160//150 179//150
f 181//151 161//151 180//151 186//151
f 172//152 180//152 160//152 182//152
f 187//153 172//153 183//153
f 184//154 182//154 185//154
f 186//155 180//155 188//155
f 188//156 180//156 172//156 187//156
usemtl Leaves
f 1//157 2//157 3//157
f 1//158 3//158 4//158
f 2//159 1//159 5//159
f 3//160 2//160 6//160
f 1//161 4//161 7//161
f 4//162 3//162 8//162
f 2//163 5//163 9//163
f 5//164 1//164 21//164 15//164 10//164 14//164 19//164 40//164 38//164 65//164 75//164 50//164 81//164 64//164 53//164 29//164 51//164 28//164 7//164
f 3//165 6//165 8//165
f 2//166 9//166 6//166
f 17//164 11//164 34//164 26//164 60//164 50//164 75//164 72//164 61//164 35//164 18//164 36//164 27//164 41//164 21//164 1//164 7//164 28//164 52//164 37//164 32//164 23//164
f 7//167 4//167 12//167
f 4//168 8//168 12//168
f 5//169 13//169 9//169
f 8//170 6//170 16//170
f 6//171 9//171 16//171
f 7//172 12//172 13//172
f 12//173 8//173 16//173
f 5//174 7//174 13//174
f 9//175 13//175 16//175
f 13//176 12//176 16//176
f 189//177 190//177 191//177
f 189//178 191//178 192//178
f 190//179 189//179 193//179
f 191//180 190//180 194//180
f 189//181 192//181 195//181
f 192//182 191//182 196//182
f 190//183 193//183 197//183
f 189//184 148//184 149//184 162//184 171//184 181//184 186//184 188//184 187//184 195//184 193//184
f 189//184 195//184 187//184 183//184 173//184 164//184 163//184 152//184 153//184 150//184 151//184 148//184
f 191//185 194//185 196//185
f 190//186 197//186 194//186
f 195//187 192//187 198//187
f 192//188 196//188 198//188
f 193//189 199//189 197//189
f 195//190 185//190 179//190 170//190 168//190 169//190 178//190 177//190 176//190 195//190 199//190 193//190
f 195//190 176//190 175//190 167//190 165//190 166//190 174//190 184//190 185//190
f 196//191 194//191 200//191
f 194//192 197//192 200//192
f 195//193 198//193 199//193
f 198//194 196//194 200//194
f 197//195 199//195 200//195
f 199//196 198//196 200//196
