# Blender v2.79 (sub 0) OBJ File: 'Bush2.blend'
# www.blender.org
mtllib Bush2.mtl
o Bush2_Icosphere.002
v -0.039920 0.417241 0.008340
v 0.051270 0.435099 0.062319
v 0.102579 0.451419 0.118783
v -0.041691 0.418305 0.013158
v -0.039268 0.417511 0.007008
v 0.039898 0.433269 0.050797
v 0.174081 0.381266 0.145857
v -0.199727 0.506394 0.414774
v -0.100431 0.422902 0.045362
v -0.086751 0.424890 0.050584
v -0.050005 0.423295 0.035769
v 0.031969 0.439692 -0.050124
v -0.035844 0.418931 -0.000000
v -0.047904 0.418261 -0.027551
v 0.019065 0.372776 -0.002055
v 0.279734 0.483398 0.154610
v 0.171566 0.458656 0.133527
v 0.357896 0.495145 0.243822
v -0.591993 0.483455 0.047199
v -0.136062 0.416421 -0.010799
v -0.140080 0.418865 -0.000691
v -0.140364 0.419033 0.000000
v -0.136594 0.420389 0.009410
v -0.124217 0.423963 0.035769
v -0.052648 0.417816 -0.036197
v 0.071529 0.454462 -0.111437
v -0.051501 0.418061 -0.035769
v 0.221484 0.341676 -0.024340
v 0.110394 0.358744 -0.012110
v 0.103079 0.361965 -0.000596
v 0.124612 0.363490 0.021713
v 0.140154 0.361563 0.022359
v 0.153330 0.355307 -0.000702
v 0.140215 0.354162 -0.015393
v 0.397291 0.376924 0.081486
v 0.294094 0.487133 0.151980
v 0.128110 0.761693 0.410340
v -0.514374 0.778213 0.380615
v -0.307131 0.498753 -0.356586
v -0.102015 0.416141 -0.045501
v -0.125754 0.418586 -0.035769
v -0.128560 0.418092 -0.029583
v -0.052827 0.417777 -0.036264
v 0.256451 0.509196 -0.225425
v 0.131921 0.377749 -0.160173
v 0.134985 0.356353 -0.023874
v 0.119933 0.358780 -0.022966
v 0.404773 0.492153 -0.001317
v 0.308087 0.492408 0.129673
v 0.374400 0.784209 0.040262
v -0.531968 0.782961 -0.174154
v -0.088406 0.419100 -0.050584
v 0.203831 0.489072 -0.138107
v 0.246217 0.488326 -0.151329
v 0.357671 0.381931 -0.107635
v 0.310288 0.521636 0.004488
v 0.322123 0.500099 0.078350
v -0.101328 0.931007 0.074184
v -0.021792 0.774809 -0.334507
v 0.241499 0.497464 -0.128064
v 0.291389 0.504356 -0.063814
v 0.000000 -0.025670 -0.106434
v -0.021973 0.115001 -0.086247
v 0.034651 0.137649 -0.060986
v 0.075260 -0.025670 -0.075260
v -0.075260 -0.025670 -0.075260
v -0.083017 0.267621 -0.058930
v 0.106434 -0.025670 0.000000
v 0.075260 -0.025670 0.075260
v 0.000000 -0.025670 0.106434
v -0.075260 -0.025670 0.075260
v -0.106434 -0.025670 0.000000
v 0.058106 0.147030 0.000000
v -0.078598 0.092352 -0.060986
v -0.041427 0.285369 -0.041670
v -0.124607 0.265038 -0.041670
v 0.034651 0.137649 0.060986
v -0.021973 0.115001 0.086247
v -0.078598 0.092352 0.060986
v -0.102052 0.082971 -0.000000
v -0.046184 0.308382 -0.039903
v -0.126096 0.417388 -0.035769
v -0.024200 0.261135 0.000000
v -0.141834 0.263969 -0.000000
v -0.091705 0.407557 -0.050584
v 0.033610 0.315560 -0.028345
v -0.041427 0.284203 0.041670
v -0.083017 0.267621 0.058930
v -0.124607 0.265038 0.041670
v 0.040930 0.300747 -0.029587
v -0.057314 0.397727 -0.035769
v 0.036649 0.337007 -0.000288
v 0.056951 0.287316 -0.000288
v -0.126096 0.417388 0.035769
v -0.034304 0.336807 0.000000
v 0.106213 0.342586 -0.023191
v 0.100625 0.359123 -0.000582
v -0.045302 0.307556 0.040231
v -0.091705 0.407557 0.050584
v 0.116850 0.334578 -0.024192
v -0.043069 0.393655 -0.000000
v 0.034357 0.315155 0.027998
v 0.106897 0.342564 0.022213
v 0.041137 0.299954 0.029010
v 0.133249 0.330719 -0.000582
v -0.057314 0.397727 0.035769
v 0.117287 0.334082 0.023028
vn 0.0520 -0.9710 0.2334
vn 0.2371 -0.9682 -0.0802
vn -0.6282 -0.3779 0.6801
vn -0.2214 0.1464 0.9641
vn -0.1194 -0.9748 0.1882
vn -0.9635 0.2517 0.0917
vn -0.1285 -0.9732 0.1906
vn 0.2544 -0.3407 0.9051
vn 0.2704 -0.3315 0.9039
vn -0.5497 -0.5582 0.6215
vn -0.1626 -0.9750 -0.1517
vn -0.7829 -0.2562 -0.5669
vn -0.1662 -0.9747 -0.1493
vn 0.0502 -0.9696 0.2395
vn 0.7539 0.3504 0.5558
vn -0.0442 0.0740 0.9963
vn 0.7754 0.3334 0.5363
vn -0.9750 0.2197 0.0328
vn -0.7846 -0.2591 -0.5633
vn 0.0898 -0.9463 -0.3105
vn -0.2729 0.3536 -0.8947
vn 0.2397 -0.9679 -0.0758
vn 0.9558 -0.2099 -0.2058
vn 0.3029 0.9269 0.2217
vn 0.0022 0.8937 0.4486
vn 0.9555 -0.2043 -0.2127
vn 0.3016 0.9182 0.2566
vn -0.3347 0.9422 0.0187
vn -0.2751 0.3557 -0.8932
vn 0.2266 -0.1574 -0.9612
vn -0.1029 0.9186 -0.3817
vn 0.6301 0.3825 -0.6757
vn 0.2617 0.9174 -0.2997
vn -0.1023 0.9224 -0.3724
vn 0.6301 0.3826 -0.6757
vn 0.2666 0.9143 -0.3051
vn 0.3611 0.1781 -0.9154
vn -0.4039 0.0818 -0.9111
vn 0.2855 0.2730 -0.9187
vn 0.0000 -1.0000 0.0000
vn 0.8921 0.2520 -0.3750
vn -0.3975 0.0007 -0.9176
vn 0.8921 0.2520 0.3750
vn 0.3611 0.1781 0.9154
vn -0.4039 0.0818 0.9111
vn -0.9285 0.0276 0.3704
vn -0.9285 0.0276 -0.3704
vn 0.8200 0.5146 -0.2505
vn 0.3903 0.0901 -0.9163
vn -0.3862 0.0315 -0.9219
vn -0.9040 -0.1986 -0.3785
vn 0.1270 0.1189 -0.9847
vn -0.9288 0.0053 -0.3705
vn 0.8178 0.5158 0.2553
vn 0.2875 0.2748 0.9175
vn -0.3975 0.0007 0.9176
vn -0.9040 -0.1986 0.3785
vn 0.2436 -0.8048 -0.5413
vn -0.9242 0.0088 -0.3818
vn 0.0049 0.8057 -0.5923
vn -0.3679 0.1052 -0.9239
vn -0.8883 0.2539 -0.3827
vn -0.9263 0.0072 0.3768
vn 0.3679 -0.1052 -0.9239
vn 0.9222 0.1357 -0.3621
vn 0.0231 0.1158 -0.9930
vn -0.2552 0.7674 -0.5882
vn 0.2499 -0.8133 0.5255
vn -0.3862 0.0315 0.9219
vn 0.4054 -0.7661 -0.4988
vn -0.8883 0.2539 0.3827
vn 0.8883 -0.2539 -0.3827
vn -0.3679 0.1052 0.9239
vn 0.8883 -0.2539 0.3827
vn -0.0509 0.0570 -0.9971
vn -0.6318 0.5429 -0.5533
vn 0.0083 0.8008 0.5989
vn -0.2508 0.7642 0.5942
vn -0.6233 0.5411 0.5646
vn 0.4129 -0.7729 0.4817
vn 0.1368 0.1004 0.9855
vn 0.3851 0.0891 0.9186
vn 0.6509 -0.5342 -0.5394
vn 0.3679 -0.1052 0.9239
vn 0.9245 0.1414 0.3539
vn 0.0361 0.1029 0.9940
vn -0.0348 0.0533 0.9980
vn 0.6612 -0.5374 0.5235
usemtl Leaves
s off
f 1//1 2//1 3//1 4//1
f 5//2 6//2 2//2 1//2
f 3//3 2//3 6//3 15//3 7//3
f 4//1 3//1 17//1 18//1 8//1 9//1 10//1 11//1
f 12//2 6//2 5//2 13//2 14//2
f 7//4 16//4 17//4 3//4
f 9//5 8//5 19//5 20//5 21//5 22//5 23//5 24//5
f 25//2 26//2 12//2 14//2 27//2
f 12//6 15//6 6//6
f 28//7 7//7 15//7 29//7 30//7 31//7 32//7 33//7 34//7
f 16//8 7//8 35//8 36//8
f 8//9 18//9 37//9
f 19//10 8//10 38//10
f 20//11 19//11 39//11 40//11 41//11 42//11
f 43//2 44//2 61//2 60//2 53//2 26//2 25//2
f 26//12 45//12 15//12 12//12
f 28//13 34//13 46//13 47//13 29//13 15//13 45//13
f 28//14 35//14 7//14
f 16//2 36//2 49//2 57//2 18//2 17//2
f 36//15 35//15 48//15 49//15
f 8//16 37//16 38//16
f 18//17 50//17 37//17
f 19//18 38//18 51//18
f 39//19 19//19 51//19
f 40//20 39//20 44//20 43//20 52//20
f 53//21 54//21 45//21 26//21
f 28//20 45//20 55//20
f 35//22 28//22 55//22
f 35//23 55//23 48//23
f 49//24 48//24 56//24 57//24
f 38//25 37//25 58//25
f 57//26 56//26 61//26 44//26 50//26 18//26
f 37//27 50//27 58//27
f 51//28 38//28 58//28
f 39//29 51//29 59//29
f 44//30 39//30 59//30
f 60//31 54//31 53//31
f 55//30 45//30 54//30
f 55//32 54//32 48//32
f 50//33 59//33 58//33
f 59//34 51//34 58//34
f 44//35 59//35 50//35
f 60//36 61//36 56//36 48//36 54//36
usemtl Tree
f 63//37 64//37 65//37 62//37
f 62//38 66//38 74//38 63//38
f 63//39 67//39 75//39 64//39
f 62//40 65//40 68//40 69//40 70//40 71//40 72//40 66//40
f 64//41 73//41 68//41 65//41
f 67//42 63//42 74//42 76//42
f 69//43 68//43 73//43 77//43
f 70//44 69//44 77//44 78//44
f 71//45 70//45 78//45 79//45
f 72//46 71//46 79//46 80//46
f 66//47 72//47 80//47 74//47
f 64//48 75//48 83//48 73//48
f 75//49 67//49 85//49 91//49 81//49
f 76//50 82//50 85//50 67//50
f 76//51 74//51 80//51 84//51
f 81//52 86//52 90//52 75//52
f 76//53 21//53 20//53 42//53 82//53
f 73//54 83//54 87//54 77//54
f 77//55 87//55 88//55 78//55
f 78//56 88//56 89//56 79//56
f 79//57 89//57 84//57 80//57
f 75//58 90//58 93//58 83//58
f 21//59 76//59 84//59 22//59
f 86//60 81//60 95//60 92//60
f 85//61 82//61 41//61 40//61 52//61
f 41//62 82//62 42//62
f 22//63 84//63 89//63 94//63 23//63
f 91//64 85//64 52//64 43//64 25//64 27//64
f 81//65 91//65 101//65 95//65
f 86//66 96//66 100//66 90//66
f 92//67 97//67 96//67 86//67
f 83//68 93//68 104//68 87//68
f 88//69 99//69 94//69 89//69
f 90//70 100//70 105//70 93//70
f 23//71 94//71 24//71
f 101//72 91//72 27//72 14//72 13//72
f 94//73 99//73 10//73 9//73 24//73
f 106//74 101//74 13//74 5//74 1//74 4//74 11//74
f 46//75 100//75 96//75 47//75
f 96//76 97//76 30//76 29//76 47//76
f 98//77 102//77 92//77 95//77
f 102//78 103//78 97//78 92//78
f 30//79 97//79 103//79 31//79
f 93//80 105//80 107//80 104//80
f 102//81 98//81 87//81 104//81
f 106//82 99//82 88//82 87//82 98//82
f 105//83 100//83 46//83 34//83 33//83
f 10//84 99//84 106//84 11//84
f 106//85 98//85 95//85 101//85
f 103//86 102//86 104//86 107//86
f 31//87 103//87 107//87 32//87
f 32//88 107//88 105//88 33//88
