# Blender v2.79 (sub 0) OBJ File: 'Grass3.blend'
# www.blender.org
mtllib Grass3.mtl
o Grass3_Cube.003
v 0.074765 -0.008768 -0.042879
v 0.084921 0.019527 -0.045928
v 0.100617 -0.008768 -0.073688
v 0.099378 0.019527 -0.063157
v 0.089648 -0.008768 -0.030391
v 0.093884 0.019527 -0.038407
v 0.115500 -0.008768 -0.061200
v 0.108341 0.019527 -0.055637
v 0.089216 0.201146 -0.036542
v 0.097155 0.116718 -0.042694
v 0.088434 0.119574 -0.032300
v 0.091630 0.116718 -0.047330
v 0.082909 0.119574 -0.036936
v -0.079509 -0.008768 -0.139211
v -0.075152 0.015070 -0.145847
v -0.079509 -0.008768 -0.169324
v -0.075152 0.015070 -0.162687
v -0.064963 -0.008768 -0.139211
v -0.066392 0.015070 -0.145847
v -0.064963 -0.008768 -0.169324
v -0.066392 0.015070 -0.162687
v -0.066046 0.151053 -0.116784
v -0.073521 0.087840 -0.134940
v -0.073521 0.089978 -0.124781
v -0.078921 0.087840 -0.134940
v -0.078921 0.089978 -0.124781
v 0.057310 -0.008768 0.009847
v 0.056929 0.043540 0.025805
v 0.089324 -0.008768 0.061234
v 0.074833 0.043540 0.054542
v 0.032487 -0.008768 0.025312
v 0.041980 0.043540 0.035118
v 0.064502 -0.008768 0.076699
v 0.059884 0.043540 0.063855
v 0.045733 0.312896 0.042457
v 0.023263 0.196044 0.050764
v 0.012226 0.196044 0.033049
v 0.032478 0.196044 0.045023
v 0.021441 0.196044 0.027308
v -0.097333 -0.008768 -0.025952
v -0.088572 0.043540 -0.039295
v -0.097334 -0.008768 -0.086496
v -0.088572 0.043540 -0.073153
v -0.068088 -0.008768 -0.025952
v -0.070960 0.043540 -0.039295
v -0.068088 -0.008768 -0.086496
v -0.070960 0.043540 -0.073153
v -0.070264 0.312896 -0.047509
v -0.085294 0.196044 -0.052447
v -0.085294 0.196044 -0.031576
v -0.096151 0.196044 -0.052447
v -0.096151 0.196044 -0.031576
v 0.063347 -0.008768 -0.133154
v 0.044516 0.062096 -0.120946
v 0.029057 -0.008768 -0.055247
v 0.025340 0.062096 -0.077379
v 0.025714 -0.008768 -0.149717
v 0.021852 0.062096 -0.130921
v -0.008576 -0.008768 -0.071811
v 0.002677 0.062096 -0.087354
v 0.047113 0.144985 -0.139530
v 0.033754 0.144985 -0.109177
v 0.016135 0.144985 -0.116714
v 0.029494 0.144985 -0.147066
v 0.028414 0.318635 -0.099683
v 0.007409 0.210416 -0.068037
v 0.020176 0.207257 -0.097043
v 0.036143 0.207257 -0.090234
v 0.023377 0.210416 -0.061228
v -0.063530 -0.008768 0.041907
v -0.047161 0.049946 0.032995
v -0.030185 -0.008768 -0.020428
v -0.028513 0.049946 -0.001865
v -0.033419 -0.008768 0.058015
v -0.029027 0.049946 0.042696
v -0.000074 -0.008768 -0.004320
v -0.010379 0.049946 0.007836
v -0.045817 0.157580 0.050532
v -0.032825 0.157580 0.026246
v -0.023389 0.157580 0.031294
v -0.036381 0.157580 0.055579
v -0.044801 0.218035 0.028062
v -0.032962 0.223283 0.005930
v -0.026169 0.223283 0.009564
v -0.038008 0.218035 0.031696
v -0.044737 0.314478 0.036108
v -0.078127 0.119792 -0.096932
v -0.092362 0.119792 -0.069567
v -0.092362 0.119792 -0.096932
v -0.078127 0.119792 -0.069567
v 0.112713 0.068123 -0.074456
v 0.093880 0.069550 -0.066722
v 0.105469 0.068123 -0.080534
v 0.101124 0.069550 -0.060644
v 0.041573 0.119792 0.084373
v 0.039185 0.119792 0.053619
v 0.053655 0.119792 0.076846
v 0.027103 0.119792 0.061147
vn -0.7503 0.2015 -0.6296
vn 0.6134 0.2989 -0.7310
vn 0.7643 0.0673 0.6413
vn -0.6134 0.2989 0.7310
vn 0.0000 -1.0000 0.0000
vn -0.7245 0.2323 -0.6490
vn -0.0000 -0.1298 0.9915
vn 0.5250 0.5770 -0.6257
vn -0.5519 -0.5127 0.6577
vn 0.7363 -0.1857 0.6507
vn 0.0000 0.2761 -0.9611
vn 0.9918 -0.1248 0.0263
vn -0.9763 0.2117 -0.0445
vn -0.9837 0.1798 0.0000
vn 0.0000 0.2682 -0.9634
vn 0.9982 0.0598 0.0000
vn 0.0000 0.2682 0.9634
vn -0.9986 -0.0524 0.0041
vn 0.0000 0.3563 -0.9344
vn 0.0000 -0.2707 0.9627
vn 0.9951 0.0987 -0.0078
vn 0.8371 0.1652 -0.5215
vn 0.5124 0.2472 0.8224
vn -0.8475 0.0548 0.5280
vn -0.5124 0.2472 -0.8224
vn 0.8487 0.0150 -0.5287
vn -0.8849 0.0393 -0.4641
vn 0.4728 0.4480 0.7588
vn -0.4882 -0.3840 -0.7837
vn -0.8484 0.0292 0.5286
vn 0.8772 0.0393 0.4786
vn 0.4448 0.3326 -0.8316
vn -0.4704 -0.0731 0.8794
vn -0.9863 0.1652 0.0000
vn 0.0000 0.2472 -0.9690
vn 0.9985 0.0548 0.0000
vn 0.0000 0.2472 0.9690
vn -0.9988 -0.0496 -0.0000
vn -0.5164 0.2148 -0.8289
vn 0.0000 0.5039 -0.8638
vn 0.0000 -0.4460 0.8951
vn 0.9956 0.0936 -0.0000
vn 0.5283 -0.0413 0.8480
vn -0.8321 0.1969 0.5184
vn 0.8439 -0.1073 -0.5257
vn 0.9017 0.1713 0.3969
vn -0.3894 0.2559 0.8848
vn -0.9138 0.0569 -0.4022
vn 0.3894 0.2559 -0.8848
vn 0.9135 0.0615 0.4021
vn 0.3896 -0.2118 -0.8963
vn -0.3713 0.3641 0.8541
vn -0.9153 0.0059 -0.4028
vn 0.0000 0.1351 0.9908
vn 0.0000 0.0422 -0.9991
vn 0.9918 -0.1276 -0.0000
vn -0.9763 0.2163 -0.0000
vn -0.3163 -0.5930 0.7405
vn 0.3071 0.6234 -0.7190
vn 0.9007 -0.1577 0.4048
vn -0.8957 0.1858 -0.4041
vn -0.8687 0.1716 -0.4647
vn 0.4559 0.2565 -0.8523
vn 0.8803 0.0570 0.4709
vn -0.4559 0.2565 0.8523
vn -0.8784 0.0875 -0.4699
vn 0.8536 0.2032 0.4796
vn -0.4673 -0.1365 0.8735
vn 0.4577 0.2418 -0.8556
vn 0.8818 0.0038 0.4717
vn -0.8634 -0.1566 -0.4796
vn -0.4472 0.3182 0.8359
vn 0.4552 -0.2622 -0.8509
vn -0.9114 0.0578 -0.4074
vn 0.9148 0.0968 0.3921
vn 0.3918 -0.0507 -0.9187
vn -0.3708 0.3262 0.8695
vn -0.7562 0.0616 -0.6514
vn 0.7693 0.0258 0.6384
vn 0.6385 0.1155 -0.7609
vn -0.6421 0.0460 0.7652
vn -0.0000 0.3690 0.9294
vn -0.0000 -0.2977 -0.9547
vn 0.7585 0.1723 0.6285
vn -0.5897 0.3978 0.7028
vn 0.6058 -0.3341 -0.7220
vn -0.7626 -0.1290 -0.6339
vn -0.8021 -0.3271 0.4997
vn -0.5198 0.1834 -0.8344
vn 0.5261 -0.1009 0.8444
vn 0.7906 0.3637 -0.4926
usemtl Leaves
s off
f 2//1 4//1 3//1 1//1
f 4//2 8//2 7//2 3//2
f 8//3 6//3 5//3 7//3
f 6//4 2//4 1//4 5//4
f 1//5 3//5 7//5 5//5
f 93//6 92//6 13//6 12//6
f 26//7 24//7 22//7
f 91//8 93//8 12//8 10//8
f 92//9 94//9 11//9 13//9
f 94//10 91//10 10//10 11//10
f 23//11 25//11 22//11
f 24//12 23//12 22//12
f 25//13 26//13 22//13
f 15//14 17//14 16//14 14//14
f 17//15 21//15 20//15 16//15
f 21//16 19//16 18//16 20//16
f 19//17 15//17 14//17 18//17
f 14//5 16//5 20//5 18//5
f 17//18 15//18 26//18 25//18
f 21//19 17//19 25//19 23//19
f 15//20 19//20 24//20 26//20
f 19//21 21//21 23//21 24//21
f 28//22 30//22 29//22 27//22
f 30//23 34//23 33//23 29//23
f 34//24 32//24 31//24 33//24
f 32//25 28//25 27//25 31//25
f 27//5 29//5 33//5 31//5
f 97//26 96//26 39//26 38//26
f 83//27 82//27 86//27
f 95//28 97//28 38//28 36//28
f 96//29 98//29 37//29 39//29
f 98//30 95//30 36//30 37//30
f 85//31 84//31 86//31
f 84//32 83//32 86//32
f 82//33 85//33 86//33
f 41//34 43//34 42//34 40//34
f 43//35 47//35 46//35 42//35
f 47//36 45//36 44//36 46//36
f 45//37 41//37 40//37 44//37
f 40//5 42//5 46//5 44//5
f 89//38 88//38 52//38 51//38
f 39//39 37//39 35//39
f 87//40 89//40 51//40 49//40
f 88//41 90//41 50//41 52//41
f 90//42 87//42 49//42 50//42
f 36//43 38//43 35//43
f 37//44 36//44 35//44
f 38//45 39//45 35//45
f 54//46 56//46 55//46 53//46
f 56//47 60//47 59//47 55//47
f 60//48 58//48 57//48 59//48
f 58//49 54//49 53//49 57//49
f 53//5 55//5 59//5 57//5
f 56//50 54//50 61//50 62//50
f 54//51 58//51 64//51 61//51
f 60//52 56//52 62//52 63//52
f 58//53 60//53 63//53 64//53
f 52//54 50//54 48//54
f 49//55 51//55 48//55
f 50//56 49//56 48//56
f 51//57 52//57 48//57
f 63//58 62//58 69//58 66//58
f 61//59 64//59 67//59 68//59
f 62//60 61//60 68//60 69//60
f 64//61 63//61 66//61 67//61
f 71//62 73//62 72//62 70//62
f 73//63 77//63 76//63 72//63
f 77//64 75//64 74//64 76//64
f 75//65 71//65 70//65 74//65
f 70//5 72//5 76//5 74//5
f 73//66 71//66 78//66 79//66
f 81//67 80//67 84//67 85//67
f 71//68 75//68 81//68 78//68
f 77//69 73//69 79//69 80//69
f 75//70 77//70 80//70 81//70
f 79//71 78//71 82//71 83//71
f 78//72 81//72 85//72 82//72
f 80//73 79//73 83//73 84//73
f 67//74 66//74 65//74
f 69//75 68//75 65//75
f 68//76 67//76 65//76
f 66//77 69//77 65//77
f 12//78 13//78 9//78
f 11//79 10//79 9//79
f 10//80 12//80 9//80
f 13//81 11//81 9//81
f 45//42 47//42 87//42 90//42
f 41//82 45//82 90//82 88//82
f 47//83 43//83 89//83 87//83
f 43//38 41//38 88//38 89//38
f 6//84 8//84 91//84 94//84
f 2//85 6//85 94//85 92//85
f 8//86 4//86 93//86 91//86
f 4//87 2//87 92//87 93//87
f 32//88 34//88 95//88 98//88
f 28//89 32//89 98//89 96//89
f 34//90 30//90 97//90 95//90
f 30//91 28//91 96//91 97//91
