# Blender v2.79 (sub 0) OBJ File: 'Rock3.blend'
# www.blender.org
mtllib Rock3.mtl
o Rock3_Icosphere
v -0.823111 0.491957 -0.351610
v -0.499213 0.619422 1.111568
v 0.690754 1.554017 -0.048798
v -0.101468 1.892767 0.176634
v 0.211487 -0.198810 -0.672988
v 0.168062 -0.194425 1.198741
v 0.922970 0.580554 -0.164801
v -0.321231 -0.052451 -0.785704
v 0.064105 0.397846 -1.163016
v -0.223367 -0.030865 1.453793
v -0.562602 0.611479 -0.921830
v 0.555411 0.750750 -0.966913
v -0.101750 1.186176 -0.972865
v 0.209959 0.438943 1.494926
v 0.451408 1.383320 0.710237
v -0.641415 1.558296 -0.097372
vn -0.9335 -0.2746 0.2306
vn 0.3694 -0.4136 0.8322
vn -0.2437 0.6223 0.7439
vn -0.2535 0.8241 -0.5065
vn 0.2104 0.8328 -0.5120
vn -0.6246 0.5795 0.5235
vn -0.1208 0.6525 0.7481
vn 0.4488 0.8311 0.3284
vn 0.4335 0.6456 -0.6287
vn -0.6497 0.4678 -0.5993
vn -0.9718 0.1167 0.2050
vn -0.3970 0.2899 0.8708
vn 0.9255 0.1811 0.3326
vn 0.1856 0.2671 -0.9456
vn -0.3059 0.1620 -0.9382
vn -0.9011 0.2397 -0.3614
vn 0.9112 0.0993 0.3999
vn 0.9009 -0.2313 0.3673
vn 0.8981 0.2568 -0.3571
vn 0.5821 -0.4253 -0.6930
vn -0.0116 -0.6363 -0.7713
vn -0.4349 -0.3299 -0.8379
vn -0.8062 -0.3852 -0.4491
vn -0.7194 -0.6936 0.0381
vn -0.2690 -0.9629 0.0210
vn -0.3894 -0.9211 -0.0069
vn 0.7859 -0.4240 -0.4501
vn 0.7323 -0.6807 0.0186
usemtl Rock
s off
f 1//1 10//1 2//1
f 6//2 14//2 10//2
f 2//3 14//3 4//3
f 13//4 16//4 4//4
f 3//5 13//5 4//5
f 16//6 2//6 4//6
f 4//7 14//7 15//7
f 15//8 3//8 4//8
f 12//9 13//9 3//9
f 13//10 11//10 16//10
f 1//11 2//11 16//11
f 10//12 14//12 2//12
f 7//13 3//13 15//13
f 12//14 9//14 13//14
f 9//15 11//15 13//15
f 11//16 1//16 16//16
f 14//17 7//17 15//17
f 14//18 6//18 7//18
f 7//19 12//19 3//19
f 5//20 9//20 12//20
f 5//21 8//21 9//21
f 8//22 11//22 9//22
f 8//23 1//23 11//23
f 8//24 10//24 1//24
f 8//25 5//25 10//25
f 5//26 6//26 10//26
f 7//27 5//27 12//27
f 5//28 7//28 6//28
