# Blender v2.79 (sub 0) OBJ File: 'Tree1.blend'
# www.blender.org
mtllib Tree1.mtl
o Tree1_Icosphere.002
v -0.044127 2.555527 0.848705
v 0.023134 2.556312 0.895409
v -0.220384 2.557454 1.074404
v -0.044741 2.551826 0.525229
v -0.049392 2.214796 0.797846
v 0.022670 2.207138 0.846705
v 0.096687 2.556179 0.859908
v -0.037722 2.554641 0.769077
v -0.615201 2.557454 0.530995
v -0.041190 2.555158 0.815443
v -0.042593 2.185869 0.711760
v -0.051452 2.081508 0.777950
v 0.022493 2.073650 0.828086
v 0.101532 2.212972 0.809480
v 0.418430 2.557454 0.866837
v 0.000223 2.554553 0.749073
v -0.220385 2.557454 -0.012415
v -0.790361 2.670447 1.083242
v 0.020343 1.310089 0.557583
v 0.103414 2.079637 0.789888
v 0.100193 2.555687 0.815745
v 0.243277 2.670446 1.419088
v 0.035868 2.554488 0.731794
v 0.036268 2.277192 0.685046
v -0.015975 2.554840 0.277211
v -0.790361 2.670447 -0.003580
v -1.014245 2.711389 0.541465
v -0.342543 2.711387 1.465975
v -0.044475 2.149229 0.704697
v -0.076389 1.317801 0.491646
v 0.126202 1.315964 0.507346
v 0.110391 2.147358 0.716635
v 0.108331 2.184046 0.723394
v 0.102965 2.555292 0.780284
v 0.744281 2.711387 1.112838
v 0.020880 2.553755 0.381778
v 0.026099 2.553721 0.386379
v 0.027082 2.555265 0.254843
v -0.020677 2.554087 0.339984
v -0.342543 2.711388 -0.383046
v -1.074759 3.020780 0.883809
v -0.679944 3.020780 1.427228
v -0.020683 2.554078 0.340745
v -0.076389 0.953442 0.292646
v 0.020343 0.945730 0.358584
v 0.126202 0.951606 0.308347
v 0.135329 1.329553 0.391172
v 0.066167 2.554861 0.754626
v -0.041121 3.020780 1.634794
v 0.882092 2.670447 0.539831
v 0.597701 3.020780 1.427228
v 0.073435 2.554293 0.352981
v 0.033756 2.555331 0.251424
v 0.033756 2.516836 0.268573
v -0.015975 2.530208 0.288215
v -0.016348 2.554778 0.282316
v 0.243277 2.670447 -0.339426
v -0.679944 3.020781 -0.331298
v -1.074759 3.020780 0.212121
v -0.067263 1.331389 0.375471
v -0.019313 2.554284 0.323576
v -0.067263 0.967030 0.176472
v 0.020343 0.733419 0.163619
v 0.126202 0.743216 0.113998
v 0.135329 0.965194 0.192173
v 0.038596 1.337265 0.325234
v 0.075876 2.554327 0.350828
v 0.418430 2.557454 0.195152
v 0.992516 3.020780 0.883809
v -0.041121 3.020781 -0.538864
v -0.965205 3.519575 0.550636
v -0.827150 3.437015 1.121908
v -0.326390 3.519577 1.429893
v 0.036446 2.101341 0.651419
v 0.038596 0.972906 0.126235
v -0.076389 0.746278 0.098489
v 0.153556 0.706083 -0.047440
v 0.079200 2.534388 0.294353
v 0.259674 3.437016 1.475044
v 0.992516 3.020780 0.212121
v 0.744281 2.711388 -0.029909
v 0.707248 3.519576 1.094048
v 0.079200 2.555110 0.285087
v 0.075638 2.555127 0.282481
v 0.597701 3.020781 -0.331298
v -0.326390 3.519578 -0.328621
v -0.827150 3.437016 -0.020839
v -0.085490 0.709696 -0.065739
v -0.115705 0.499179 0.001219
v 0.016953 0.481545 0.090538
v 0.162128 0.494980 0.022487
v 0.174644 0.578862 -0.133218
v 0.038596 0.778729 -0.065884
v 0.076392 2.554642 0.324101
v 0.931376 3.437011 0.550534
v 0.259674 3.437016 -0.373976
v -0.502947 3.872306 0.214808
v -0.502947 3.872306 0.886493
v 0.135868 3.872306 1.094060
v 0.016953 0.379628 0.093575
v 0.162128 0.379628 0.024211
v 0.104435 1.002875 -0.410252
v 0.110765 1.009394 -0.324305
v 0.707248 3.519576 0.007225
v 0.530684 3.872303 0.550651
v 0.135868 3.872307 0.007242
v 0.039285 1.013152 -0.275872
v -0.103189 0.583061 -0.154486
v -0.115705 0.379628 0.002532
v 0.174644 0.379628 -0.136196
v 0.026625 1.000115 -0.447765
v -0.040694 4.034620 0.550651
v -0.038526 1.010392 -0.313385
v -0.160871 0.182765 0.096496
v 0.007699 0.182765 0.212185
v 0.192173 0.182765 0.124043
v 0.208077 0.182765 -0.079787
v 0.041986 0.379628 -0.227239
v 0.041986 0.543683 -0.224201
v 0.027333 1.172476 -0.571779
v 0.105141 1.172315 -0.534159
v 0.111465 1.172076 -0.447965
v 0.039981 1.171999 -0.399392
v -0.103189 0.379628 -0.157875
v -0.044856 1.003873 -0.399332
v -0.144967 0.182765 -0.107334
v -0.150523 -0.064519 0.110694
v 0.026536 -0.064519 0.212919
v 0.203595 -0.064519 0.110694
v 0.039507 0.182765 -0.195476
v -0.044151 1.172399 -0.523205
v -0.037827 1.172161 -0.437012
v -0.150523 -0.064519 -0.093756
v 0.203595 -0.064519 -0.093756
v 0.028163 1.455194 -0.684813
v 0.105957 1.455246 -0.647302
v -0.043340 1.455393 -0.636380
v 0.112242 1.455563 -0.561391
v 0.040743 1.455699 -0.512927
v -0.037055 1.455726 -0.550478
v 0.026536 -0.064519 -0.195981
v 0.109490 1.627267 -0.635790
v 0.043229 1.626846 -0.667765
v 0.023950 1.626684 -0.535392
v 0.053755 1.627083 -0.521040
v 0.008989 1.626347 -0.644731
v -0.017936 1.625954 -0.626568
v 0.111820 1.627063 -0.603828
v 0.114842 1.627392 -0.562484
v -0.015175 1.625929 -0.586012
v -0.012750 1.626191 -0.553134
v 0.087852 1.627255 -0.544190
v -0.016320 1.625798 -0.602532
v -0.037956 1.625585 -0.602314
v -0.351306 1.629393 -0.833423
v 0.080873 1.629393 -0.973849
v 0.347980 1.629393 -0.606214
v -0.351306 1.629393 -0.379006
v -0.232810 1.705836 -1.207039
v 0.080873 1.629393 -0.238580
v 0.466481 1.705836 -0.979828
v -0.664989 1.705837 -0.612192
v 0.163517 1.733534 -1.238759
v -0.571756 1.733534 -0.999851
v 0.466481 1.705836 -0.244557
v 0.617946 1.733536 -0.613298
v -0.571755 1.733534 -0.226744
v -0.232810 1.705836 -0.017345
v -0.040405 1.942849 -1.352971
v -0.472589 1.942849 -1.212546
v 0.163517 1.733534 0.012164
v 0.658885 1.942849 -0.844905
v 0.391780 1.942849 -1.212546
v -0.739695 1.942849 -0.390486
v -0.739695 1.942849 -0.844905
v 0.391780 1.942849 -0.022845
v 0.658885 1.942849 -0.390486
v -0.472589 1.942849 -0.022845
v -0.040404 1.942849 0.117581
v 0.152589 2.280301 -1.214349
v -0.243903 2.224446 -1.244895
v -0.546701 2.280300 -0.987138
v 0.584769 2.280300 -0.619502
v 0.491370 2.224445 -1.005987
v -0.698331 2.224443 -0.619433
v -0.546701 2.280300 -0.251867
v 0.152589 2.280301 -0.024656
v 0.491370 2.224445 -0.232880
v -0.243903 2.224446 0.006029
v 0.272036 2.518934 -0.846721
v -0.160144 2.518934 -0.987147
v -0.427250 2.518933 -0.619512
v 0.272036 2.518934 -0.392304
v -0.160143 2.518934 -0.251878
v -0.040694 2.628745 -0.619512
vn 0.0037 -0.9999 0.0114
vn -0.0098 -0.9999 0.0071
vn -0.0099 -0.9999 -0.0072
vn -0.1905 -0.9719 0.1384
vn 0.0721 -0.9724 0.2218
vn 0.0038 -0.9999 -0.0117
vn -0.1946 -0.9706 -0.1414
vn -0.3571 -0.9309 0.0772
vn -0.1802 -0.9333 0.3107
vn -0.0368 -0.9339 0.3556
vn 0.2395 -0.9335 0.2669
vn -0.1889 -0.9274 -0.3229
vn -0.3606 -0.9294 -0.0783
vn -0.8170 -0.4922 0.3004
vn -0.5361 -0.4994 0.6806
vn 0.0339 -0.5039 0.8631
vn 0.3303 -0.9325 0.1461
vn 0.4804 -0.5027 0.7187
vn -0.0370 -0.9271 -0.3729
vn -0.5427 -0.4762 -0.6919
vn -0.8226 -0.4820 -0.3017
vn -0.9814 -0.1920 0.0000
vn -0.7700 -0.3066 0.5595
vn -0.3019 -0.2129 0.9293
vn 0.0122 -0.9999 0.0000
vn 0.2930 -0.3174 0.9019
vn 0.8358 -0.4956 0.2364
vn 0.2368 -0.9716 0.0000
vn 0.7911 -0.2093 0.5748
vn 0.0746 -0.9704 -0.2296
vn 0.0323 -0.4745 -0.8797
vn -0.3042 -0.1752 -0.9364
vn -0.7760 -0.2828 -0.5638
vn -0.9767 0.2145 0.0000
vn -0.8006 0.1435 0.5817
vn -0.3022 0.2092 0.9300
vn 0.3060 0.1403 0.9417
vn 0.9537 -0.3006 0.0000
vn 0.3368 -0.9298 -0.1483
vn 0.7910 0.2101 0.5747
vn 0.2471 -0.9285 -0.2772
vn 0.2967 -0.2790 -0.9133
vn -0.3015 0.2187 -0.9280
vn -0.7998 0.1506 -0.5811
vn -0.8864 0.3770 -0.2686
vn -0.8875 0.3743 0.2686
vn -0.5300 0.3716 0.7622
vn -0.0194 0.3704 0.9287
vn 0.5614 0.3709 0.7398
vn 0.9894 0.1453 0.0000
vn 0.8400 -0.4876 -0.2382
vn 0.8764 0.3728 0.3048
vn 0.4895 -0.4783 -0.7291
vn 0.3054 0.1517 -0.9401
vn -0.0181 0.3795 -0.9250
vn -0.5291 0.3791 -0.7592
vn -0.6992 0.6641 -0.2648
vn -0.6992 0.6640 0.2649
vn -0.4681 0.6640 0.5831
vn 0.0360 0.6640 0.7469
vn 0.4099 0.6640 0.6254
vn 0.8754 0.3758 -0.3040
vn 0.7949 -0.1860 -0.5775
vn 0.7214 0.6640 0.1966
vn 0.5588 0.3782 -0.7380
vn 0.0358 0.6642 -0.7467
vn -0.4679 0.6641 -0.5831
vn -0.6066 0.7950 0.0000
vn -0.1875 0.7950 0.5769
vn 0.4908 0.7950 0.3566
vn 0.7899 0.2160 -0.5739
vn 0.7213 0.6641 -0.1967
vn 0.4100 0.6641 -0.6252
vn -0.1875 0.7950 -0.5769
vn -0.3313 0.9435 0.0000
vn -0.1024 0.9435 0.3151
vn 0.2680 0.9435 0.1947
vn 0.4908 0.7950 -0.3566
vn -0.1024 0.9435 -0.3151
vn 0.2680 0.9435 -0.1947
vn -0.0037 -0.9999 -0.0114
vn 0.0098 -0.9999 -0.0071
vn -0.0122 -0.9999 0.0000
vn -0.0721 -0.9724 -0.2218
vn 0.0099 -0.9999 0.0072
vn 0.1905 -0.9719 -0.1384
vn -0.2368 -0.9716 -0.0000
vn -0.0038 -0.9999 0.0117
vn 0.0368 -0.9339 -0.3556
vn -0.2395 -0.9335 -0.2669
vn 0.1946 -0.9706 0.1414
vn 0.3571 -0.9309 -0.0772
vn 0.1802 -0.9333 -0.3107
vn -0.3368 -0.9298 0.1483
vn -0.3303 -0.9325 -0.1461
vn -0.0746 -0.9704 0.2296
vn -0.0339 -0.5039 -0.8631
vn -0.4804 -0.5027 -0.7187
vn 0.1889 -0.9274 0.3229
vn 0.3606 -0.9294 0.0783
vn 0.8170 -0.4922 -0.3004
vn 0.5361 -0.4994 -0.6806
vn -0.8400 -0.4876 0.2382
vn -0.2471 -0.9285 0.2772
vn -0.8358 -0.4956 -0.2364
vn 0.0370 -0.9271 0.3729
vn 0.3019 -0.2129 -0.9293
vn -0.2930 -0.3174 -0.9019
vn -0.7911 -0.2093 -0.5748
vn 0.5427 -0.4762 0.6919
vn 0.8226 -0.4820 0.3017
vn 0.9814 -0.1920 0.0000
vn 0.7700 -0.3066 -0.5595
vn -0.9537 -0.3006 0.0000
vn -0.7949 -0.1860 0.5775
vn -0.4895 -0.4783 0.7291
vn -0.0323 -0.4745 0.8797
vn 0.3022 0.2092 -0.9300
vn -0.3060 0.1403 -0.9416
vn -0.7910 0.2101 -0.5747
vn 0.3042 -0.1752 0.9364
vn 0.7760 -0.2828 0.5638
vn 0.9767 0.2145 0.0000
vn 0.8006 0.1435 -0.5817
vn -0.9894 0.1453 0.0000
vn -0.7899 0.2160 0.5739
vn -0.2967 -0.2790 0.9133
vn 0.5300 0.3716 -0.7622
vn 0.0194 0.3704 -0.9287
vn -0.5614 0.3709 -0.7398
vn -0.8764 0.3728 -0.3048
vn 0.3015 0.2187 0.9280
vn 0.7998 0.1506 0.5811
vn 0.8864 0.3770 0.2686
vn 0.8875 0.3743 -0.2686
vn -0.8754 0.3758 0.3040
vn -0.5588 0.3782 0.7380
vn -0.3054 0.1517 0.9401
vn 0.4681 0.6640 -0.5831
vn -0.0360 0.6640 -0.7469
vn -0.4099 0.6640 -0.6254
vn -0.7214 0.6640 -0.1966
vn 0.0181 0.3795 0.9250
vn 0.5291 0.3791 0.7592
vn 0.6992 0.6641 0.2648
vn 0.6992 0.6640 -0.2649
vn -0.7213 0.6641 0.1967
vn -0.4100 0.6641 0.6252
vn 0.1875 0.7950 -0.5769
vn -0.4908 0.7950 -0.3566
vn -0.0358 0.6642 0.7467
vn 0.4679 0.6641 0.5831
vn 0.6066 0.7950 -0.0000
vn -0.4908 0.7950 0.3566
vn 0.1024 0.9435 -0.3151
vn -0.2680 0.9435 -0.1947
vn 0.1875 0.7950 0.5769
vn 0.3313 0.9435 0.0000
vn -0.2680 0.9435 0.1947
vn 0.1024 0.9435 0.3151
vn -0.5658 -0.1132 0.8167
vn -0.9957 0.0286 -0.0882
vn 0.4311 -0.1252 0.8936
vn -0.9969 0.0248 -0.0748
vn -0.9964 0.0354 -0.0775
vn -0.5576 -0.2756 0.7830
vn 0.9969 0.0024 0.0791
vn -0.4613 0.1422 -0.8758
vn 0.4234 -0.3034 0.8536
vn 0.9960 0.0094 0.0884
vn 0.9970 0.0025 0.0779
vn -0.4311 0.1494 -0.8899
vn -0.5169 0.6193 0.5910
vn -0.9966 0.0540 -0.0615
vn -0.9986 0.0526 -0.0068
vn -0.5369 -0.4044 0.7404
vn 0.4051 -0.4382 0.8024
vn 0.9965 -0.0021 0.0838
vn 0.5658 0.1329 -0.8137
vn 0.5953 0.1344 -0.7922
vn -0.5565 0.6059 0.5685
vn 0.4212 0.6726 0.6084
vn -0.4256 -0.3691 -0.8262
vn -0.9964 -0.0162 -0.0830
vn -0.9965 0.0402 -0.0736
vn -0.4945 -0.5911 0.6372
vn 0.3685 -0.6314 0.6823
vn 0.9965 -0.0402 0.0736
vn 0.5270 0.3314 -0.7826
vn 0.9960 0.0893 0.0053
vn 0.5070 0.6331 0.5850
vn -0.4208 -0.3691 -0.8287
vn -0.5881 -0.5634 -0.5803
vn -0.9968 -0.0327 -0.0732
vn -0.3902 0.3568 -0.8488
vn -0.4051 0.4382 -0.8024
vn -0.9991 0.0426 -0.0036
vn 0.9866 -0.0889 0.1372
vn 0.5369 0.4044 -0.7404
vn 0.5597 -0.3372 -0.7570
vn -0.9969 -0.0324 -0.0720
vn -0.3590 0.6545 -0.6654
vn -0.5647 -0.2230 0.7946
vn 0.4296 -0.2570 0.8657
vn 0.9869 0.0853 0.1367
vn 0.4822 0.6143 -0.6246
vn 0.6768 -0.5070 -0.5338
vn 0.5544 -0.3397 -0.7598
vn -0.9893 0.1455 0.0109
vn -0.5614 0.0163 0.8274
vn 0.4270 0.0198 0.9041
vn 0.9903 0.1373 -0.0218
vn 0.3704 0.6392 0.6740
vn 0.9969 0.0323 0.0721
vn -0.3515 0.6263 0.6958
vn 0.9969 -0.0003 0.0789
vn 0.5310 -0.3792 -0.7578
vn -0.9969 0.0005 -0.0788
vn -0.9876 0.1558 0.0171
vn -0.5013 0.4637 0.7305
vn 0.3820 0.4637 0.7994
vn 0.9792 0.1882 0.0764
vn 0.5644 0.0137 -0.8254
vn 0.3716 -0.5461 -0.7508
vn 0.9958 -0.0572 -0.0711
vn 0.4849 0.5317 0.6944
vn -0.3651 0.5694 0.7366
vn -0.9792 0.1882 -0.0764
vn -0.5333 -0.0059 0.8459
vn 0.4659 0.0059 0.8848
vn 0.9992 0.0119 0.0389
vn 0.5604 -0.1388 -0.8165
vn -0.4996 -0.3889 -0.7741
vn -0.4917 -0.5108 -0.7052
vn -0.4302 0.0158 -0.9026
vn -0.9958 0.0575 0.0711
vn -0.4269 -0.1388 -0.8936
vn -0.9992 -0.0119 -0.0389
vn 0.5333 0.0059 -0.8459
vn 0.4087 -0.3399 -0.8470
vn -0.5334 -0.3127 -0.7859
vn 0.9968 -0.0320 -0.0730
vn 0.5334 0.3130 0.7858
vn -0.4087 0.3400 0.8469
vn -0.4659 -0.0059 -0.8848
vn 0.0000 -1.0000 -0.0000
vn 0.4337 0.0513 -0.8996
vn -0.9968 0.0320 0.0730
vn -0.4334 0.0754 0.8980
vn -0.5558 0.1300 -0.8211
vn 0.9972 -0.0156 -0.0728
vn -0.5547 0.1303 -0.8218
vn -0.9873 0.1419 0.0717
vn 0.5611 -0.0032 0.8278
vn -0.4348 0.0760 0.8973
vn 0.5617 -0.0035 0.8273
vn -0.9874 0.1432 0.0673
usemtl Leaves
s off
f 2//1 3//1 4//1 23//1 16//1 8//1 10//1 1//1
f 2//1 7//1 21//1 34//1 48//1 23//1 4//1 15//1 3//1
f 4//2 3//2 9//2
f 4//3 9//3 17//3
f 9//4 3//4 18//4
f 3//5 15//5 22//5
f 38//6 25//6 56//6 61//6 39//6 43//6 36//6 37//6 4//6 17//6 53//6
f 17//7 9//7 26//7
f 9//8 18//8 27//8
f 3//9 28//9 18//9
f 3//10 22//10 28//10
f 15//11 35//11 22//11
f 17//12 26//12 40//12
f 9//13 27//13 26//13
f 27//14 18//14 41//14
f 18//15 28//15 42//15
f 28//16 22//16 49//16
f 35//17 15//17 50//17
f 22//18 35//18 51//18
f 17//19 40//19 57//19
f 40//20 26//20 58//20
f 26//21 27//21 59//21
f 27//22 41//22 59//22
f 41//23 18//23 42//23
f 28//24 49//24 42//24
f 15//25 4//25 68//25
f 49//26 22//26 51//26
f 35//27 50//27 69//27
f 50//28 15//28 68//28
f 35//29 69//29 51//29
f 17//6 68//6 4//6 37//6 52//6 67//6 94//6 83//6 84//6 53//6
f 68//30 17//30 57//30
f 57//31 40//31 70//31
f 40//32 58//32 70//32
f 58//33 26//33 59//33
f 59//34 41//34 71//34
f 41//35 42//35 72//35
f 42//36 49//36 73//36
f 49//37 51//37 79//37
f 69//38 50//38 80//38
f 50//39 68//39 81//39
f 51//40 69//40 82//40
f 68//41 57//41 81//41
f 85//42 57//42 70//42
f 70//43 58//43 86//43
f 58//44 59//44 87//44
f 59//45 71//45 87//45
f 41//46 72//46 71//46
f 42//47 73//47 72//47
f 49//48 79//48 73//48
f 51//49 82//49 79//49
f 69//50 80//50 95//50
f 50//51 81//51 80//51
f 69//52 95//52 82//52
f 81//53 57//53 85//53
f 85//54 70//54 96//54
f 70//55 86//55 96//55
f 58//56 87//56 86//56
f 87//57 71//57 97//57
f 71//58 72//58 98//58
f 72//59 73//59 98//59
f 73//60 79//60 99//60
f 79//61 82//61 99//61
f 80//62 104//62 95//62
f 81//63 85//63 80//63
f 82//64 95//64 105//64
f 85//65 96//65 104//65
f 96//66 86//66 106//66
f 86//67 87//67 97//67
f 97//68 71//68 98//68
f 98//69 73//69 99//69
f 99//70 82//70 105//70
f 80//71 85//71 104//71
f 95//72 104//72 105//72
f 104//73 96//73 106//73
f 106//74 86//74 97//74
f 97//75 98//75 112//75
f 98//76 99//76 112//76
f 99//77 105//77 112//77
f 105//78 104//78 106//78
f 106//79 97//79 112//79
f 105//80 106//80 112//80
f 154//81 155//81 156//81
f 154//82 156//82 157//82 148//82 142//82 143//82 146//82 147//82 153//82
f 155//83 154//83 158//83
f 156//84 155//84 159//84
f 154//85 153//85 150//85 151//85 144//85 145//85 152//85 149//85 148//85 157//85 160//85
f 157//86 156//86 161//86
f 162//87 155//87 158//87
f 154//88 160//88 158//88
f 156//89 159//89 163//89
f 155//90 164//90 159//90
f 160//91 157//91 165//91
f 157//92 161//92 166//92
f 156//93 163//93 161//93
f 162//94 158//94 167//94
f 164//95 155//95 162//95
f 158//96 160//96 168//96
f 163//97 159//97 169//97
f 159//98 164//98 170//98
f 160//99 165//99 171//99
f 157//100 166//100 165//100
f 166//101 161//101 172//101
f 161//102 163//102 173//102
f 162//103 167//103 174//103
f 158//104 168//104 167//104
f 164//105 162//105 175//105
f 160//106 171//106 168//106
f 163//107 169//107 173//107
f 169//108 159//108 170//108
f 164//109 175//109 170//109
f 171//110 165//110 176//110
f 165//111 166//111 177//111
f 166//112 172//112 177//112
f 172//113 161//113 173//113
f 175//114 162//114 174//114
f 167//115 178//115 174//115
f 167//116 168//116 178//116
f 168//117 171//117 179//117
f 173//118 169//118 180//118
f 169//119 170//119 181//119
f 170//120 175//120 182//120
f 171//121 176//121 179//121
f 176//122 165//122 177//122
f 177//123 172//123 183//123
f 172//124 173//124 184//124
f 175//125 174//125 185//125
f 174//126 178//126 186//126
f 178//127 168//127 179//127
f 173//128 180//128 184//128
f 169//129 181//129 180//129
f 170//130 182//130 181//130
f 175//131 185//131 182//131
f 179//132 176//132 187//132
f 176//133 177//133 188//133
f 177//134 183//134 188//134
f 172//135 184//135 183//135
f 174//136 186//136 185//136
f 178//137 189//137 186//137
f 178//138 179//138 189//138
f 184//139 180//139 190//139
f 180//140 181//140 191//140
f 181//141 182//141 191//141
f 182//142 185//142 192//142
f 179//143 187//143 189//143
f 176//144 188//144 187//144
f 188//145 183//145 193//145
f 183//146 184//146 190//146
f 185//147 186//147 192//147
f 186//148 189//148 194//148
f 190//149 180//149 191//149
f 191//150 182//150 192//150
f 189//151 187//151 194//151
f 187//152 188//152 193//152
f 193//153 183//153 190//153
f 192//154 186//154 194//154
f 190//155 191//155 195//155
f 191//156 192//156 195//156
f 194//157 187//157 193//157
f 193//158 190//158 195//158
f 192//159 194//159 195//159
f 194//160 193//160 195//160
usemtl Tree
f 1//161 5//161 6//161 2//161
f 10//162 11//162 5//162 1//162
f 12//161 13//161 6//161 5//161
f 2//163 6//163 14//163 7//163
f 8//164 11//164 10//164
f 5//165 11//165 29//165 12//165
f 13//166 12//166 30//166 19//166
f 13//163 20//163 14//163 6//163
f 7//167 14//167 21//167
f 16//168 24//168 11//168 8//168
f 19//169 31//169 20//169 13//169
f 20//170 32//170 33//170 14//170
f 21//171 14//171 33//171 34//171
f 23//172 24//172 16//172
f 36//173 11//173 24//173 37//173
f 12//174 29//174 60//174 30//174
f 39//175 29//175 11//175 43//175
f 44//176 45//176 19//176 30//176
f 45//177 46//177 31//177 19//177
f 31//178 47//178 32//178 20//178
f 34//179 33//179 48//179
f 48//180 33//180 24//180 23//180
f 43//181 11//181 36//181
f 37//182 24//182 52//182
f 38//183 54//183 55//183 25//183
f 39//184 61//184 55//184 29//184
f 62//185 44//185 30//185 60//185
f 45//186 44//186 76//186 63//186
f 46//187 45//187 63//187 64//187
f 46//188 65//188 47//188 31//188
f 47//189 66//189 74//189 32//189
f 33//190 32//190 78//190 94//190 67//190
f 24//191 33//191 67//191 52//191
f 53//192 54//192 38//192
f 55//193 54//193 74//193 29//193
f 25//194 55//194 56//194
f 29//195 74//195 66//195 60//195
f 75//196 62//196 60//196 66//196
f 44//197 62//197 88//197 76//197
f 64//198 77//198 65//198 46//198
f 65//199 75//199 66//199 47//199
f 84//200 78//200 54//200 53//200
f 56//201 55//201 61//201
f 62//202 75//202 93//202 88//202
f 89//203 90//203 63//203 76//203
f 90//204 91//204 64//204 63//204
f 77//205 64//205 91//205 92//205
f 77//206 93//206 75//206 65//206
f 32//207 74//207 54//207 78//207
f 83//208 78//208 84//208
f 76//209 88//209 108//209 89//209
f 90//210 89//210 109//210 100//210
f 91//211 90//211 100//211 101//211
f 92//212 102//212 103//212 77//212
f 77//213 103//213 107//213 93//213
f 94//214 78//214 83//214
f 93//215 107//215 113//215 88//215
f 101//216 110//216 92//216 91//216
f 102//217 92//217 119//217 111//217
f 89//218 108//218 124//218 109//218
f 88//219 113//219 125//219 108//219
f 114//220 115//220 100//220 109//220
f 115//221 116//221 101//221 100//221
f 116//222 117//222 110//222 101//222
f 110//223 118//223 119//223 92//223
f 111//224 120//224 121//224 102//224
f 102//225 121//225 122//225 103//225
f 103//226 122//226 123//226 107//226
f 107//227 123//227 132//227 113//227
f 126//228 114//228 109//228 124//228
f 114//229 127//229 128//229 115//229
f 115//230 128//230 129//230 116//230
f 116//231 129//231 134//231 117//231
f 117//232 130//232 118//232 110//232
f 111//233 119//233 108//233 125//233
f 120//234 111//234 125//234 131//234
f 108//235 119//235 118//235 124//235
f 113//236 132//236 131//236 125//236
f 130//237 126//237 124//237 118//237
f 126//238 133//238 127//238 114//238
f 117//239 134//239 141//239 130//239
f 120//240 135//240 136//240 121//240
f 131//241 137//241 135//241 120//241
f 121//242 136//242 138//242 122//242
f 122//243 138//243 139//243 123//243
f 123//244 139//244 140//244 132//244
f 130//245 141//245 133//245 126//245
f 141//246 134//246 129//246 128//246 127//246 133//246
f 142//247 136//247 135//247 143//247
f 137//248 131//248 132//248 140//248
f 144//249 140//249 139//249 145//249
f 146//250 135//250 137//250 147//250
f 136//251 142//251 148//251 149//251 138//251
f 143//252 135//252 146//252
f 150//253 137//253 140//253 151//253
f 152//254 139//254 138//254 149//254
f 151//255 140//255 144//255
f 145//256 139//256 152//256
f 147//257 137//257 150//257 153//257
