# Blender v2.79 (sub 0) OBJ File: 'Tree2.blend'
# www.blender.org
mtllib Tree2.mtl
o Tree2_Icosphere.001
v -0.017288 3.216932 -1.328563
v -0.029023 3.217128 -1.320699
v 0.160631 3.194434 -1.852101
v 0.006879 3.218281 -1.308485
v -0.026163 3.217081 -1.322599
v -0.051614 3.218468 -1.304976
v 0.014687 3.218720 -1.301935
v -0.007061 2.960932 -1.522750
v -0.040866 2.949201 -1.509038
v -0.660740 3.226561 -1.860767
v 0.012376 3.221071 -1.252505
v 0.025432 2.949510 -1.505955
v -0.004491 2.922222 -1.574124
v -0.042178 2.926050 -1.478531
v -0.053891 3.219954 -1.256199
v -0.107859 3.226560 -1.099805
v -0.056897 3.215368 -2.294976
v 0.786703 3.226560 -1.390471
v 0.024121 2.926360 -1.475448
v -0.004491 2.922222 -1.574124
v -0.043578 2.898529 -1.577934
v -0.052446 3.219930 -1.255072
v -0.944567 3.385034 -1.114723
v -0.107859 3.226560 -2.621729
v -0.010674 3.212437 -2.254677
v 0.786703 3.226560 -2.331063
v -0.016784 3.221549 -1.233137
v 0.034315 2.902521 -1.569384
v -0.070599 2.829844 -1.564087
v -0.009684 2.914629 -1.461736
v -1.265981 3.435320 -1.878761
v -0.325365 3.435317 -0.584126
v -0.944567 3.385034 -2.636652
v -0.056882 3.215448 -2.297848
v -0.015607 3.212800 -2.260779
v 0.013194 3.212076 -2.274726
v 0.502885 3.385033 -0.644422
v -0.021909 3.221635 -1.229700
v 1.397448 3.385034 -1.875688
v 0.035130 3.216740 -2.366677
v 0.049252 2.829844 -1.564087
v -0.002771 2.896312 -1.608511
v -0.048465 3.220153 -1.251735
v -0.044308 2.884932 -1.596421
v -1.387787 3.788729 -1.422993
v -0.834909 3.788729 -0.662018
v -0.325365 3.435317 -3.173396
v -0.057109 3.194197 -2.275881
v -0.056471 3.217389 -2.367253
v -0.004826 3.212391 -2.261112
v 0.034115 3.213204 -2.291888
v 1.196566 3.435318 -1.078640
v 1.196566 3.435318 -2.678882
v 0.035572 3.213283 -2.293096
v 0.037248 2.887013 -1.590319
v -0.010674 2.846476 -1.533749
v -0.065095 2.848966 -1.638067
v -1.387787 3.788729 -2.363589
v 0.059664 3.788729 -0.371353
v 0.502885 3.385033 -3.106953
v -0.834909 3.788729 -3.124564
v -0.057109 3.152567 -2.309674
v -0.051235 3.217297 -2.371196
v -0.057109 2.876712 -1.745405
v -0.010320 3.212434 -2.255070
v 0.035761 3.194197 -2.275881
v 0.954237 3.788729 -0.662018
v 1.507114 3.788729 -2.363589
v 1.507114 3.788729 -1.422993
v 0.035171 3.216385 -2.359123
v -0.010674 3.217719 -2.402356
v 0.044365 2.846825 -1.629783
v 0.084474 1.711046 -0.896970
v -0.010674 1.737455 -0.848801
v -0.010674 2.876309 -1.644639
v -0.070599 2.796579 -1.624763
v -0.105821 1.711046 -0.896970
v -1.263912 4.322958 -1.905098
v -1.067013 4.236081 -1.103529
v -0.369349 4.322960 -0.673833
v 0.059664 3.788729 -3.415228
v -0.057109 2.830715 -1.772961
v -0.026797 3.216861 -2.389362
v -0.010674 2.899710 -1.731627
v 0.035761 2.876712 -1.745405
v 0.954237 3.788729 -3.124564
v 0.035761 3.152567 -2.309674
v -0.004228 3.217578 -2.397276
v 0.049252 2.796579 -1.624763
v 0.099071 1.207133 -0.515008
v -0.010674 1.237592 -0.459449
v 0.084474 1.658229 -0.993308
v -0.105821 1.658229 -0.993308
v -0.120418 1.207133 -0.515008
v -1.067013 4.236081 -2.703770
v 0.454917 4.236082 -0.609015
v -0.369349 4.322960 -3.136364
v -0.010674 3.131752 -2.326570
v -0.010674 2.807718 -1.786739
v -0.010674 2.876309 -1.644639
v 0.035761 2.830715 -1.772961
v 1.078103 4.322958 -1.144134
v 1.395533 4.236075 -1.903649
v 1.078103 4.322958 -2.666062
v -0.010674 0.951996 -0.143416
v 0.099071 1.146212 -0.626125
v -0.010674 1.631820 -1.041476
v -0.010674 2.779947 -1.655101
v -0.120418 1.146212 -0.626125
v -0.120418 0.916401 -0.195832
v -0.628675 4.706462 -2.380323
v -0.628675 4.706462 -1.439731
v 0.265887 4.706462 -1.149065
v 0.454917 4.236082 -3.198285
v 0.099071 0.916401 -0.195832
v 0.099071 0.845209 -0.300666
v -0.010674 1.115752 -0.681684
v -0.120418 0.845209 -0.300666
v 0.265887 4.706462 -2.670988
v 0.818768 4.706458 -1.910027
v -0.010674 0.951996 0.091200
v -0.186784 0.879009 0.033795
v 0.165437 0.879009 0.033795
v -0.213401 0.712263 -0.145733
v -0.010674 0.809613 -0.353083
v 0.014423 4.895012 -1.911747
v 0.192054 0.712263 -0.145733
v -0.010674 0.712263 -0.262778
v 0.099071 1.207133 0.462792
v -0.010674 1.237592 0.407233
v -0.213401 0.712263 0.088356
v 0.099071 0.845209 0.248450
v -0.010674 0.284655 -0.285609
v -0.233174 0.284655 -0.157149
v 0.099071 1.146212 0.573909
v -0.120418 1.207133 0.462792
v -0.233174 0.284655 0.099770
v -0.120418 0.845209 0.248450
v 0.192054 0.712263 0.088356
v 0.211826 0.284655 -0.157149
v -0.269991 -0.081886 -0.168854
v -0.010674 -0.081886 -0.318572
v -0.010674 1.737455 0.796585
v 0.084474 1.711046 0.844754
v 0.084474 1.658229 0.941092
v -0.105821 1.711046 0.844754
v -0.269991 -0.081886 0.130579
v -0.010674 0.284655 0.228231
v -0.010674 0.712263 0.205399
v 0.211826 0.284655 0.099771
v -0.010674 0.809613 0.300867
v -0.010674 1.115752 0.629468
v 0.248644 -0.081886 -0.168854
v 0.248644 -0.081886 0.130579
v -0.010674 -0.081886 0.280297
v -0.010674 2.846476 1.481534
v 0.049252 2.829844 1.511871
v -0.010674 1.631820 0.989261
v 0.049252 2.796579 1.572547
v -0.120418 1.146212 0.573909
v -0.105821 1.658229 0.941092
v -0.070599 2.829844 1.511871
v 0.024121 2.926360 1.423231
v -0.010674 2.779947 1.602885
v 0.044365 2.846825 1.577567
v -0.070599 2.796579 1.572547
v -0.009684 2.914629 1.409520
v 0.034315 2.902521 1.517168
v -0.010674 2.807718 1.734523
v 0.035761 2.830715 1.720745
v 0.037248 2.887013 1.538103
v -0.065095 2.848966 1.585851
v -0.042178 2.926050 1.426315
v 0.010033 3.279873 1.155806
v 0.009757 3.279899 1.155605
v 0.025432 2.949510 1.453739
v -0.057109 2.830715 1.720745
v 0.035761 2.876712 1.693189
v -0.002771 2.896312 1.556295
v -0.044308 2.884932 1.544206
v -0.043578 2.898529 1.525718
v -0.023971 3.273413 1.138349
v 0.012769 3.266748 1.213322
v 0.001867 3.280619 1.149935
v -0.004491 2.922222 1.521908
v -0.010674 3.131752 2.274354
v -0.057109 3.152567 2.257457
v -0.010674 2.876309 1.592424
v 0.035761 3.194197 2.223664
v 0.035761 3.152567 2.257457
v -0.010674 2.876309 1.592424
v -0.057109 2.876712 1.693189
v -0.040866 2.949201 1.456823
v -0.040252 3.278004 1.147530
v -0.056005 3.273041 1.163824
v -0.014289 3.258216 1.241338
v -0.023615 3.282022 1.135603
v -0.004491 2.922222 1.521908
v -0.007061 2.960932 1.470534
v -0.057109 3.194197 2.223664
v -0.010674 2.899710 1.679411
v 0.034923 3.237768 2.333139
v 0.035330 3.234499 2.265325
v -0.053269 3.259913 1.221351
v -0.024153 3.282053 1.135295
v -0.018879 3.256757 1.246137
v -0.010674 3.238771 2.368699
v 0.028017 3.237923 2.338584
v -0.056285 3.236273 2.331811
v -0.018678 3.238329 2.362155
v -0.010674 3.215012 2.206768
v -0.056724 3.232720 2.258412
v -0.056338 3.235796 2.321948
v 0.035361 3.234231 2.259775
v -0.049060 3.259520 1.224414
v -0.010674 3.231680 2.221920
v -0.053778 3.232653 2.256052
v -0.009289 3.231758 2.223070
v 0.037248 2.887013 -1.590319
v 0.034676 2.900617 -1.571955
v 0.034315 2.902521 -1.569384
v 0.034315 2.902521 1.517168
v 0.034676 2.900617 1.519740
v 0.037248 2.887013 1.538103
v -0.011560 3.214061 1.857448
v 0.477437 3.239152 2.218007
v -0.221267 3.239152 2.445034
v -0.653098 3.239153 1.850679
v 0.477437 3.239152 1.483352
v 0.255758 3.362929 2.800713
v -0.221267 3.239152 1.256325
v -0.874783 3.362930 2.433382
v 0.954462 3.362930 1.839026
v -0.391151 3.402204 2.847808
v 0.797563 3.402204 2.461565
v -0.874783 3.362930 1.244669
v -1.125825 3.402206 1.836625
v 0.797563 3.402204 1.211685
v 0.255758 3.362929 0.877338
v -0.090422 3.678238 3.013996
v 0.608291 3.678238 2.786970
v -0.391151 3.402204 0.825442
v -1.220962 3.678239 2.192605
v -0.789134 3.678238 2.786970
v 1.040119 3.678239 1.457947
v 1.040119 3.678239 2.192605
v -0.789134 3.678238 0.863582
v -1.220962 3.678239 1.457947
v 0.608291 3.678238 0.863582
v -0.090422 3.678238 0.636557
v -0.425505 4.095503 2.777742
v 0.218293 4.027646 2.828369
v 0.705037 4.095501 2.410410
v -1.124208 4.095501 1.816054
v -0.970420 4.027645 2.442125
v 0.952968 4.027641 1.817186
v 0.705037 4.095501 1.221698
v -0.425505 4.095503 0.854366
v -0.970420 4.027645 1.192246
v 0.218293 4.027646 0.806002
v -0.628053 4.395040 2.179533
v 0.070650 4.395040 2.406559
v 0.502481 4.395037 1.812205
v -0.628053 4.395040 1.444877
v 0.070650 4.395040 1.217850
v -0.125758 4.542308 1.810861
vn -0.0394 -0.9988 0.0286
vn -0.0388 -0.9989 -0.0282
vn -0.1867 -0.9730 0.1357
vn 0.0512 -0.9987 0.0000
vn -0.3271 -0.9419 0.0756
vn -0.1826 -0.9357 0.3018
vn -0.1822 -0.9743 -0.1324
vn 0.0763 -0.9690 0.2349
vn 0.2512 -0.9679 0.0000
vn 0.0153 -0.9988 -0.0470
vn 0.0157 -0.9987 0.0482
vn -0.3232 -0.9434 -0.0745
vn -0.7447 -0.6090 0.2732
vn -0.0300 -0.9308 0.3642
vn -0.5014 -0.5818 0.6403
vn -0.1732 -0.9418 -0.2881
vn 0.2491 -0.9237 0.2910
vn 0.3485 -0.9260 -0.1451
vn 0.3570 -0.9223 0.1482
vn -0.7340 -0.6233 -0.2699
vn -0.9454 -0.3258 0.0000
vn -0.7407 -0.4023 0.5381
vn 0.0286 -0.5383 0.8423
vn -0.3008 -0.2296 0.9256
vn -0.0294 -0.9387 -0.3436
vn -0.4867 -0.6162 -0.6192
vn 0.4829 -0.5089 0.7126
vn 0.8251 -0.5123 -0.2384
vn 0.2386 -0.9307 -0.2774
vn 0.8334 -0.4971 0.2414
vn 0.0732 -0.9716 -0.2252
vn -0.7263 -0.4405 -0.5277
vn -0.9742 0.2259 0.0000
vn -0.7988 0.1583 0.5804
vn 0.2957 -0.2909 0.9099
vn -0.2968 0.2788 0.9133
vn 0.0294 -0.5861 -0.8097
vn -0.2948 -0.2997 -0.9073
vn 0.8014 -0.1369 0.5823
vn 0.9650 -0.2622 0.0000
vn 0.7953 -0.1834 -0.5778
vn 0.4666 -0.5518 -0.6912
vn -0.8019 0.1320 -0.5826
vn -0.8674 0.4243 -0.2600
vn -0.8630 0.4338 0.2590
vn -0.5069 0.4579 0.7304
vn 0.3010 0.2262 0.9264
vn -0.0181 0.4815 0.8762
vn 0.2882 -0.3609 -0.8870
vn -0.2999 0.2410 -0.9230
vn 0.7653 0.3243 0.5560
vn 0.9703 0.2420 0.0000
vn 0.7712 0.3021 -0.5603
vn -0.5136 0.4312 -0.7418
vn -0.6252 0.7442 -0.2351
vn -0.6223 0.7470 0.2338
vn -0.4112 0.7517 0.5156
vn 0.5224 0.5013 0.6898
vn 0.0288 0.7587 0.6508
vn 0.3037 0.1849 -0.9347
vn -0.0196 0.4502 -0.8927
vn 0.8145 0.5067 0.2825
vn 0.8197 0.4971 -0.2846
vn 0.5312 0.4775 -0.6999
vn -0.4158 0.7456 -0.5208
vn -0.5168 0.8561 0.0000
vn -0.1573 0.8607 0.4842
vn 0.3568 0.7627 0.5394
vn 0.0296 0.7512 -0.6595
vn 0.6214 0.7643 0.1723
vn 0.6237 0.7624 -0.1728
vn 0.3605 0.7565 -0.5456
vn -0.1590 0.8574 -0.4895
vn -0.2813 0.9596 0.0000
vn -0.0864 0.9601 0.2658
vn 0.4065 0.8646 0.2953
vn 0.4091 0.8627 -0.2973
vn -0.0868 0.9598 -0.2671
vn 0.2248 0.9606 0.1634
vn 0.2255 0.9604 -0.1638
vn 0.8014 -0.1369 0.5822
vn 0.5253 0.5275 -0.6677
vn -0.4698 0.5215 -0.7122
vn -0.4659 0.5225 -0.7140
vn 0.5291 0.5258 -0.6660
vn -0.4262 0.7263 -0.5393
vn -0.9989 -0.0047 -0.0465
vn 0.9989 0.0047 0.0465
vn 0.4688 0.7296 -0.4979
vn -0.9464 0.3196 -0.0477
vn -0.5291 -0.5252 0.6665
vn 0.4660 -0.5219 0.7145
vn 0.9552 0.2898 -0.0599
vn 0.4698 -0.5203 0.7132
vn -0.3785 0.7381 -0.5586
vn -0.3273 -0.6227 0.7107
vn -1.0000 0.0054 -0.0052
vn -0.4957 0.5844 0.6424
vn -0.4981 0.7441 0.4451
vn 0.2975 -0.6440 0.7048
vn -0.5254 -0.5262 0.6686
vn -1.0000 0.0047 -0.0058
vn 0.4957 0.5842 0.6426
vn 0.4995 0.4552 0.7371
vn 0.4723 0.6871 -0.5521
vn -0.4085 0.8056 -0.4290
vn -0.9954 0.0712 -0.0640
vn -0.4995 0.4552 0.7371
vn -0.4996 -0.5725 -0.6501
vn -1.0000 0.0000 0.0000
vn 0.5000 0.7433 0.4444
vn 0.4962 0.7450 0.4459
vn 0.4995 0.5830 0.6408
vn 1.0000 0.0047 -0.0058
vn 1.0000 0.0052 -0.0052
vn 0.9954 0.0712 -0.0640
vn 0.4952 0.5339 0.6854
vn 0.9996 0.0237 -0.0130
vn -0.9996 0.0237 -0.0130
vn -0.4952 0.5339 0.6854
vn -0.4948 -0.5747 -0.6519
vn -0.4981 -0.7436 -0.4461
vn -0.4486 0.8687 0.2102
vn 1.0000 0.0000 0.0000
vn 0.4948 -0.5744 -0.6521
vn 0.4997 -0.5728 -0.6498
vn 0.4842 0.6480 0.5879
vn 0.9997 0.0205 -0.0112
vn 0.5000 -0.4082 -0.7638
vn 0.0000 0.0000 1.0000
vn 0.4474 0.8694 0.2097
vn -0.4181 -0.8825 -0.2154
vn -0.9997 0.0205 -0.0112
vn -0.5000 -0.4082 -0.7638
vn -0.4842 0.6480 0.5879
vn 0.4981 -0.7436 -0.4461
vn 0.4181 -0.8825 -0.2154
vn 0.4978 -0.4960 -0.7114
vn -0.4978 -0.4960 -0.7114
vn 0.3628 0.9316 0.0232
vn -0.3628 0.9316 0.0232
vn 0.9074 0.3602 -0.2165
vn 0.4854 -0.6408 -0.5948
vn -0.9074 0.3602 -0.2165
vn -0.4854 -0.6408 -0.5948
vn -0.4424 -0.5639 -0.6973
vn 0.2693 0.7550 -0.5979
vn -0.2693 0.7550 -0.5979
vn -0.9657 0.2060 0.1583
vn 0.4424 -0.5639 -0.6973
vn 0.9657 0.2059 0.1583
vn -0.4995 0.0462 -0.8651
vn 0.9802 -0.1009 0.1704
vn -0.9989 0.0462 0.0000
vn 0.4995 0.0462 -0.8651
vn -0.4985 0.0776 -0.8634
vn 0.4952 0.5339 -0.6854
vn 0.9997 0.0205 0.0112
vn -0.9802 -0.1009 0.1704
vn -0.4952 0.5339 -0.6854
vn -0.9950 0.0999 0.0000
vn -0.4995 0.0462 0.8651
vn -0.4377 -0.5830 0.6846
vn 0.9989 0.0462 0.0000
vn 0.4377 -0.5830 0.6846
vn 0.4854 -0.6408 0.5948
vn 0.4985 0.0776 -0.8634
vn 0.0000 -1.0000 0.0000
vn 0.4995 0.4552 -0.7371
vn 0.4978 -0.4960 0.7114
vn 0.9996 0.0237 0.0130
vn -0.9997 0.0205 0.0112
vn -0.4995 0.4552 -0.7371
vn -0.4963 0.1221 0.8595
vn 0.4995 0.0462 0.8651
vn 0.9950 0.0999 0.0000
vn 0.4963 0.1221 0.8595
vn 0.2975 -0.6440 -0.7048
vn -0.4978 -0.4960 0.7114
vn 0.5000 -0.4082 0.7638
vn 0.9954 0.0712 0.0640
vn -0.4854 -0.6408 0.5948
vn -0.9996 0.0237 0.0130
vn -0.3273 -0.6227 -0.7107
vn 0.9552 0.2898 0.0599
vn -0.5000 -0.4082 0.7638
vn 0.4181 -0.8825 0.2154
vn -0.9954 0.0712 0.0640
vn 0.4698 -0.5206 -0.7129
vn -0.4181 -0.8825 0.2154
vn 0.4723 0.6871 0.5521
vn -0.9464 0.3196 0.0477
vn -0.5273 -0.5257 -0.6675
vn 0.9989 0.0047 -0.0465
vn 0.4660 -0.5216 -0.7147
vn 0.4689 0.7296 0.4979
vn 0.4981 -0.7435 0.4461
vn -0.4981 -0.7436 0.4461
vn 0.4474 0.8694 -0.2097
vn -0.4085 0.8056 0.4290
vn 0.5253 0.5272 0.6679
vn 0.4575 -0.2873 -0.8415
vn 0.4981 0.7441 -0.4451
vn 1.0000 0.0047 0.0058
vn -0.4486 0.8687 -0.2102
vn -0.3784 0.7381 0.5586
vn -0.9989 -0.0047 0.0465
vn -0.5310 -0.2923 -0.7954
vn 0.5291 0.5262 0.6658
vn 0.4626 -0.2867 -0.8389
vn -0.4262 0.7263 0.5393
vn 0.4948 -0.5747 0.6519
vn -0.4948 -0.5744 0.6521
vn -0.4981 0.7441 -0.4451
vn -1.0000 0.0047 0.0058
vn 0.4996 -0.5725 0.6501
vn 1.0000 0.0053 0.0052
vn -0.4698 0.5212 0.7125
vn -0.4659 0.5228 0.7138
vn -0.4996 -0.5728 0.6498
vn -1.0000 0.0053 0.0051
vn -0.4957 0.5842 -0.6427
vn -0.5000 0.5828 -0.6406
vn 0.4957 0.5844 -0.6424
vn 0.4997 0.5827 -0.6410
vn 0.5043 -0.6607 0.5560
vn 0.5179 -0.6603 -0.5438
usemtl Leaves
s off
f 2//1 6//1 15//1 22//1 16//1 10//1 3//1
f 10//2 24//2 83//2 63//2 49//2 34//2 17//2 35//2 25//2 65//2 50//2 36//2 3//2
f 10//3 16//3 23//3
f 18//4 3//4 26//4
f 10//5 23//5 31//5
f 16//6 32//6 23//6
f 24//7 10//7 33//7
f 16//8 18//8 37//8
f 39//9 18//9 26//9
f 26//10 3//10 36//10 51//10 54//10 70//10 40//10 88//10 71//10 83//10 24//10
f 4//11 1//11 5//11 2//11 3//11 18//11 16//11 22//11 43//11 38//11 27//11 11//11 7//11
f 10//12 31//12 33//12
f 31//13 23//13 45//13
f 16//14 37//14 32//14
f 23//15 32//15 46//15
f 24//16 33//16 47//16
f 18//17 52//17 37//17
f 39//18 26//18 53//18
f 52//19 18//19 39//19
f 33//20 31//20 58//20
f 31//21 45//21 58//21
f 45//22 23//22 46//22
f 32//23 37//23 59//23
f 32//24 59//24 46//24
f 24//25 47//25 60//25
f 47//26 33//26 61//26
f 37//27 52//27 67//27
f 39//28 53//28 68//28
f 26//29 60//29 53//29
f 52//30 39//30 69//30
f 26//31 24//31 60//31
f 61//32 33//32 58//32
f 58//33 45//33 78//33
f 45//34 46//34 79//34
f 59//35 37//35 67//35
f 46//36 59//36 80//36
f 60//37 47//37 81//37
f 47//38 61//38 81//38
f 52//39 69//39 67//39
f 69//40 39//40 68//40
f 53//41 86//41 68//41
f 53//42 60//42 86//42
f 61//43 58//43 95//43
f 58//44 78//44 95//44
f 45//45 79//45 78//45
f 46//46 80//46 79//46
f 59//47 67//47 96//47
f 59//48 96//48 80//48
f 86//49 60//49 81//49
f 81//50 61//50 97//50
f 67//51 69//51 102//51
f 69//52 68//52 103//52
f 68//53 86//53 104//53
f 61//54 95//54 97//54
f 95//55 78//55 111//55
f 78//56 79//56 112//56
f 79//57 80//57 112//57
f 67//58 102//58 96//58
f 80//59 96//59 113//59
f 86//60 81//60 114//60
f 81//61 97//61 114//61
f 69//62 103//62 102//62
f 68//63 104//63 103//63
f 86//64 114//64 104//64
f 97//65 95//65 111//65
f 111//66 78//66 112//66
f 112//67 80//67 113//67
f 96//68 102//68 113//68
f 114//69 97//69 119//69
f 102//70 103//70 120//70
f 103//71 104//71 120//71
f 104//72 114//72 119//72
f 119//73 97//73 111//73
f 111//74 112//74 126//74
f 112//75 113//75 126//75
f 113//76 102//76 120//76
f 120//77 104//77 119//77
f 119//78 111//78 126//78
f 113//79 120//79 126//79
f 120//80 119//80 126//80
f 225//11 226//11 227//11 207//11 208//11 202//11 203//11 214//11 218//11 216//11
f 225//11 216//11 217//11 212//11 213//11 209//11 210//11 207//11 227//11
f 225//1 227//1 228//1
f 226//4 225//4 229//4
f 227//8 226//8 230//8
f 225//2 228//2 231//2
f 228//3 227//3 232//3
f 233//9 226//9 229//9
f 225//10 231//10 229//10
f 227//14 230//14 234//14
f 226//17 235//17 230//17
f 231//7 228//7 236//7
f 228//5 232//5 237//5
f 227//6 234//6 232//6
f 233//18 229//18 238//18
f 235//19 226//19 233//19
f 229//31 231//31 206//31 196//31 183//31 174//31 175//31 184//31 239//31
f 231//31 239//31 184//31 197//31 205//31 194//31 195//31 204//31 215//31 206//31
f 234//23 230//23 240//23
f 230//27 235//27 241//27
f 231//16 236//16 242//16
f 228//12 237//12 236//12
f 237//13 232//13 243//13
f 232//15 234//15 244//15
f 233//28 238//28 245//28
f 229//29 239//29 238//29
f 235//30 233//30 246//30
f 231//25 242//25 239//25
f 234//24 240//24 244//24
f 240//35 230//35 241//35
f 235//81 246//81 241//81
f 242//26 236//26 247//26
f 236//20 237//20 248//20
f 237//21 243//21 248//21
f 243//22 232//22 244//22
f 246//40 233//40 245//40
f 238//41 249//41 245//41
f 238//42 239//42 249//42
f 239//37 242//37 250//37
f 244//36 240//36 251//36
f 240//47 241//47 252//47
f 241//51 246//51 253//51
f 242//38 247//38 250//38
f 247//32 236//32 248//32
f 248//33 243//33 254//33
f 243//34 244//34 255//34
f 246//52 245//52 256//52
f 245//53 249//53 257//53
f 249//49 239//49 250//49
f 244//46 251//46 255//46
f 240//48 252//48 251//48
f 241//58 253//58 252//58
f 246//62 256//62 253//62
f 250//50 247//50 258//50
f 247//43 248//43 259//43
f 248//44 254//44 259//44
f 243//45 255//45 254//45
f 245//63 257//63 256//63
f 249//64 260//64 257//64
f 249//60 250//60 260//60
f 255//57 251//57 261//57
f 251//59 252//59 262//59
f 252//68 253//68 262//68
f 253//70 256//70 263//70
f 250//61 258//61 260//61
f 247//54 259//54 258//54
f 259//55 254//55 264//55
f 254//56 255//56 261//56
f 256//71 257//71 263//71
f 257//72 260//72 265//72
f 261//67 251//67 262//67
f 262//76 253//76 263//76
f 260//69 258//69 265//69
f 258//65 259//65 264//65
f 264//66 254//66 261//66
f 263//77 257//77 265//77
f 261//75 262//75 266//75
f 262//79 263//79 266//79
f 265//73 258//73 264//73
f 264//74 261//74 266//74
f 263//80 265//80 266//80
f 265//78 264//78 266//78
usemtl Tree
f 4//82 8//82 1//82
f 1//83 8//83 9//83 5//83
f 9//84 6//84 2//84 5//84
f 7//85 12//85 8//85 4//85
f 8//86 13//86 20//86 21//86 9//86
f 6//87 9//87 14//87 15//87
f 11//88 19//88 12//88 7//88
f 8//89 12//89 28//89 20//89 13//89
f 9//90 21//90 44//90 57//90 29//90 14//90
f 15//91 14//91 30//91 43//91 22//91
f 27//92 19//92 11//92
f 12//93 19//93 41//93 72//93 55//93 42//93 20//93 28//93
f 27//94 38//94 30//94 19//94
f 20//95 42//95 44//95 21//95
f 14//96 29//96 56//96 30//96
f 34//97 48//97 17//97
f 17//98 48//98 35//98
f 48//99 64//99 84//99 25//99 35//99
f 41//100 19//100 30//100 56//100
f 43//101 30//101 38//101
f 49//102 62//102 48//102 34//102
f 66//103 51//103 36//103 50//103
f 73//104 41//104 56//104 74//104
f 55//105 72//105 75//105 42//105
f 42//106 75//106 57//106 44//106
f 29//107 57//107 64//107 82//107 76//107
f 74//108 56//108 29//108 77//108
f 63//109 62//109 49//109
f 64//110 48//110 62//110 82//110
f 65//111 25//111 84//111 85//111
f 65//112 85//112 66//112 50//112
f 51//113 66//113 54//113
f 70//114 54//114 66//114 87//114
f 70//115 87//115 40//115
f 41//116 89//116 101//116 85//116 72//116
f 90//117 73//117 74//117 91//117
f 92//118 89//118 41//118 73//118
f 77//119 29//119 76//119 93//119
f 91//120 74//120 77//120 94//120
f 63//121 83//121 71//121 98//121 62//121
f 82//122 62//122 98//122 99//122
f 57//123 100//123 75//123 84//123 64//123
f 101//124 87//124 66//124 85//124
f 40//125 87//125 98//125 88//125
f 88//126 98//126 71//126
f 91//127 105//127 115//127 90//127
f 106//128 92//128 73//128 90//128
f 107//129 108//129 89//129 92//129
f 75//130 100//130 72//130
f 75//131 72//131 85//131 84//131
f 76//132 82//132 99//132 108//132
f 94//133 77//133 93//133 109//133
f 93//134 76//134 108//134 107//134
f 94//135 110//135 105//135 91//135
f 87//136 101//136 99//136 98//136
f 101//137 89//137 108//137 99//137
f 116//124 106//124 90//124 115//124
f 117//138 107//138 92//138 106//138
f 110//110 94//110 109//110 118//110
f 109//139 93//139 107//139 117//139
f 105//140 121//140 123//140 115//140
f 110//141 122//141 121//141 105//141
f 115//142 123//142 127//142 116//142
f 106//143 116//143 125//143 117//143
f 118//144 124//144 122//144 110//144
f 118//145 109//145 117//145 125//145
f 124//146 118//146 125//146 128//146
f 123//147 121//147 130//147 129//147
f 121//148 122//148 136//148 130//148
f 124//149 131//149 138//149 122//149
f 116//150 127//150 128//150 125//150
f 123//151 132//151 139//151 127//151
f 133//152 134//152 124//152 128//152
f 129//153 135//153 132//153 123//153
f 134//154 137//154 131//154 124//154
f 140//155 133//155 128//155 127//155
f 141//156 134//156 133//156 142//156
f 129//157 130//157 143//157 144//157
f 135//158 129//158 144//158 145//158
f 122//159 138//159 160//159 136//159
f 130//160 136//160 146//160 143//160
f 147//161 137//161 134//161 141//161
f 137//162 148//162 149//162 131//162
f 131//163 149//163 151//163 138//163
f 150//164 140//164 127//164 139//164
f 132//165 151//165 149//165 139//165
f 135//166 152//166 151//166 132//166
f 142//167 133//167 140//167 153//167
f 142//168 153//168 154//168 155//168 147//168 141//168
f 144//169 143//169 156//169 157//169
f 152//170 135//170 145//170 158//170
f 145//171 144//171 157//171 159//171
f 136//172 160//172 161//172 146//172
f 143//173 146//173 162//173 156//173
f 155//174 148//174 137//174 147//174
f 148//175 150//175 139//175 149//175
f 153//176 140//176 150//176 154//176
f 154//177 150//177 148//177 155//177
f 157//178 156//178 167//178 163//178
f 160//179 152//179 158//179 161//179
f 158//180 145//180 159//180 164//180
f 157//181 165//181 178//181 170//181 159//181
f 138//182 151//182 152//182 160//182
f 146//183 161//183 166//183 162//183
f 156//184 162//184 173//184 167//184
f 176//185 168//185 198//185 179//185 171//185 165//185 157//185 163//185
f 161//186 158//186 164//186 166//186
f 164//187 159//187 170//187 169//187
f 162//188 166//188 177//188 192//188 172//188
f 174//189 163//189 167//189 175//189
f 166//190 164//190 169//190 177//190
f 171//191 179//191 191//191 165//191
f 173//192 162//192 172//192 180//192 181//192 193//192
f 167//193 173//193 195//193 194//193 182//193
f 183//194 176//194 163//194 174//194
f 175//195 167//195 182//195 184//195
f 199//196 185//196 198//196 168//196 176//196
f 169//197 170//197 190//197 186//197
f 177//198 169//198 186//198 187//198
f 165//199 188//199 191//199 201//199 178//199
f 170//124 178//124 189//124 190//124
f 172//200 191//200 179//200 180//200
f 196//201 176//201 183//201
f 184//202 182//202 197//202
f 192//110 177//110 187//110 200//110
f 178//203 201//203 211//203 189//203
f 202//204 190//204 189//204 203//204
f 192//205 201//205 191//205 172//205
f 180//206 179//206 198//206 181//206
f 191//130 188//130 172//130
f 195//207 173//207 193//207 204//207
f 205//208 182//208 194//208
f 206//209 199//209 176//209 196//209
f 197//210 182//210 205//210
f 185//211 199//211 193//211 181//211 198//211
f 207//212 186//212 190//212 208//212
f 209//213 187//213 186//213 210//213
f 200//214 211//214 201//214 192//214
f 212//215 200//215 187//215 213//215
f 208//216 190//216 202//216
f 203//217 189//217 214//217
f 204//218 193//218 199//218 215//218
f 215//219 199//219 206//219
f 210//220 186//220 207//220
f 213//221 187//221 209//221
f 216//222 211//222 200//222 217//222
f 217//223 200//223 212//223
f 214//224 189//224 211//224 218//224
f 218//225 211//225 216//225
f 219//226 220//226 221//226
f 222//227 223//227 224//227
